<?xml version="1.0" encoding="UTF-8"?>
<svg id="Layer_1" data-name="Layer 1" xmlns="http://www.w3.org/2000/svg" xmlns:xlink="http://www.w3.org/1999/xlink" viewBox="0 0 17.89 27.93">
  <defs>
    <style>
      .cls-1, .cls-2 {
        stroke: #000;
      }

      .cls-1, .cls-2, .cls-3 {
        stroke-miterlimit: 10;
      }

      .cls-1, .cls-3 {
        fill: none;
      }

      .cls-2, .cls-4 {
        fill: #b5b5b5;
      }

      .cls-3 {
        stroke: #fff;
        stroke-width: .75px;
      }

      .cls-5 {
        clip-path: url(#clippath);
      }
    </style>
    <clipPath id="clippath">
      <path class="cls-2" d="M2.06.5c-.87,0-1.56.7-1.56,1.57v23.8c0,.87.7,1.56,1.56,1.56h13.77c.86,0,1.56-.7,1.56-1.56V2.07c0-.87-.7-1.57-1.56-1.57H2.06Z"/>
    </clipPath>
  </defs>
  <g>
    <path class="cls-4" d="M2.06.5c-.87,0-1.56.7-1.56,1.57v23.8c0,.87.7,1.56,1.56,1.56h13.77c.86,0,1.56-.7,1.56-1.56V2.07c0-.87-.7-1.57-1.56-1.57H2.06Z"/>
    <g class="cls-5">
      <rect class="cls-2" x=".5" y=".5" width="16.89" height="26.93"/>
    </g>
    <path class="cls-1" d="M2.06.5c-.87,0-1.56.7-1.56,1.57v23.8c0,.87.7,1.56,1.56,1.56h13.77c.86,0,1.56-.7,1.56-1.56V2.07c0-.87-.7-1.57-1.56-1.57H2.06Z"/>
  </g>
  <path class="cls-3" d="M2.07.5h13.76c.86,0,1.56.7,1.56,1.56v23.8c0,.86-.7,1.56-1.56,1.56H2.06c-.86,0-1.56-.7-1.56-1.56V2.07c0-.87.7-1.57,1.57-1.57Z"/>
</svg>