<?xml version="1.0" encoding="UTF-8"?>
<svg id="Layer_1" data-name="Layer 1" xmlns="http://www.w3.org/2000/svg" xmlns:xlink="http://www.w3.org/1999/xlink" viewBox="0 0 59.06 104.47">
  <defs>
    <style>
      .cls-1 {
        fill: url(#linear-gradient-15);
      }

      .cls-2 {
        fill: url(#linear-gradient-13);
      }

      .cls-3 {
        clip-path: url(#clippath-6);
      }

      .cls-4 {
        clip-path: url(#clippath-7);
      }

      .cls-5 {
        clip-path: url(#clippath-4);
      }

      .cls-6 {
        fill: url(#linear-gradient-2);
      }

      .cls-7 {
        fill: url(#linear-gradient-10);
      }

      .cls-8 {
        fill: url(#linear-gradient-12);
      }

      .cls-9 {
        stroke-linejoin: round;
      }

      .cls-9, .cls-10, .cls-11, .cls-12 {
        fill: none;
      }

      .cls-9, .cls-10, .cls-12 {
        stroke: #fff;
      }

      .cls-9, .cls-12 {
        stroke-width: .75px;
      }

      .cls-13 {
        clip-path: url(#clippath-9);
      }

      .cls-14 {
        clip-path: url(#clippath-10);
      }

      .cls-15 {
        fill: #fff;
      }

      .cls-16 {
        clip-path: url(#clippath-11);
      }

      .cls-10 {
        stroke-width: .5px;
      }

      .cls-10, .cls-12 {
        stroke-miterlimit: 10;
      }

      .cls-17 {
        fill: url(#linear-gradient-4);
      }

      .cls-18 {
        fill: url(#linear-gradient-3);
      }

      .cls-19 {
        clip-path: url(#clippath-1);
      }

      .cls-20 {
        fill: url(#linear-gradient-5);
      }

      .cls-21 {
        clip-path: url(#clippath-5);
      }

      .cls-22 {
        clip-path: url(#clippath-8);
      }

      .cls-23 {
        fill: url(#linear-gradient-8);
      }

      .cls-24 {
        clip-path: url(#clippath-3);
      }

      .cls-25 {
        clip-path: url(#clippath-12);
      }

      .cls-26 {
        fill: url(#linear-gradient-14);
      }

      .cls-27 {
        clip-path: url(#clippath-14);
      }

      .cls-28 {
        fill: url(#linear-gradient-7);
      }

      .cls-29 {
        fill: url(#linear-gradient-9);
      }

      .cls-30 {
        fill: url(#linear-gradient-11);
      }

      .cls-31 {
        fill: url(#linear-gradient-6);
      }

      .cls-32 {
        clip-path: url(#clippath-2);
      }

      .cls-33 {
        clip-path: url(#clippath-13);
      }

      .cls-34 {
        fill: url(#linear-gradient);
      }

      .cls-35 {
        clip-path: url(#clippath);
      }
    </style>
    <clipPath id="clippath">
      <path class="cls-11" d="M.38,39.94v4.88c0,2.8,3.96,5.08,8.83,5.08s8.83-2.27,8.83-5.08v-4.88c0-2.8-3.95-5.08-8.83-5.08S.38,37.14.38,39.94"/>
    </clipPath>
    <linearGradient id="linear-gradient" x1="-585.86" y1="843.45" x2="-584.86" y2="843.45" gradientTransform="translate(10350.16 14942.77) scale(17.67 -17.67)" gradientUnits="userSpaceOnUse">
      <stop offset="0" stop-color="#674026"/>
      <stop offset="1" stop-color="#d5a65c"/>
    </linearGradient>
    <clipPath id="clippath-1">
      <path class="cls-11" d="M23.32,43.3c.27.35.57.66.86.91l-.13.38-.26.23-.12,1.37h.47l.72,4.88h3.15v-4.18h3.43v4.18h3.15l.72-4.88h.47l-.12-1.37-.25-.23-.21-.34c.66-.49,1.13-1.13,1.51-1.84.38-.72.57-1.43.56-2.12l-13.94,3.01ZM29.66,30.81c-.35,1.52-1.18,2.68-2.44,3.59-1.04.75-2.07,1.53-3.06,2.35-.72.59-1.31,1.33-1.68,2.2-.35.82-.36,1.65-.15,2.42l14.31-3.09c-.14-.23-.31-.46-.5-.68-1.02-1.18-2.27-2.08-3.54-2.95-1.06-.73-1.99-1.57-2.47-2.8-.15-.38-.26-.77-.4-1.18-.04.08-.06.11-.07.14"/>
    </clipPath>
    <linearGradient id="linear-gradient-2" x1="-585.86" y1="843.45" x2="-584.86" y2="843.45" gradientTransform="translate(8849.92 12749.99) scale(15.07 -15.07)" gradientUnits="userSpaceOnUse">
      <stop offset="0" stop-color="#96999b"/>
      <stop offset="1" stop-color="#000"/>
    </linearGradient>
    <clipPath id="clippath-2">
      <polygon class="cls-11" points="35.35 38.44 35.35 41.44 32.77 39.93 31.42 42.41 33.95 43.87 31.42 45.27 32.77 47.75 35.35 46.23 35.35 49.18 38.08 49.18 38.08 46.23 40.67 47.75 42.01 45.27 39.54 43.87 42.01 42.41 40.67 39.93 38.08 41.44 38.08 38.44 35.35 38.44"/>
    </clipPath>
    <linearGradient id="linear-gradient-3" x1="-585.86" y1="843.45" x2="-584.86" y2="843.45" gradientTransform="translate(-6166.68 -8894.73) rotate(-180) scale(10.6 -10.6)" gradientUnits="userSpaceOnUse">
      <stop offset="0" stop-color="#231f20"/>
      <stop offset=".1" stop-color="#231f20"/>
      <stop offset="1" stop-color="#6d6e70"/>
    </linearGradient>
    <clipPath id="clippath-3">
      <path class="cls-11" d="M.38,92.97v4.88c0,2.8,3.96,5.08,8.83,5.08s8.83-2.27,8.83-5.08v-4.88c0-2.8-3.96-5.08-8.83-5.08S.38,90.17.38,92.97"/>
    </clipPath>
    <linearGradient id="linear-gradient-4" x1="-585.86" y1="843.45" x2="-584.86" y2="843.45" gradientTransform="translate(10350.45 14996.22) scale(17.67 -17.67)" gradientUnits="userSpaceOnUse">
      <stop offset="0" stop-color="#674026"/>
      <stop offset="1" stop-color="#d5a65c"/>
    </linearGradient>
    <clipPath id="clippath-4">
      <path class="cls-11" d="M21.8,96.33c.27.35.56.66.86.92l-.13.37-.26.23-.12,1.37h.47l.72,4.88h3.15v-4.18h3.43v4.18h3.15l.72-4.88h.47l-.12-1.37-.25-.23-.21-.34c.66-.49,1.13-1.13,1.51-1.84.38-.73.57-1.43.56-2.12l-13.94,3.01ZM28.15,83.84c-.35,1.52-1.18,2.68-2.44,3.59-1.04.75-2.07,1.53-3.06,2.35-.72.6-1.31,1.33-1.68,2.2-.35.82-.36,1.65-.15,2.42l14.31-3.09c-.14-.23-.31-.46-.5-.68-1.02-1.18-2.26-2.08-3.54-2.95-1.06-.73-1.99-1.57-2.47-2.8-.15-.38-.26-.77-.4-1.18-.04.08-.06.11-.07.14"/>
    </clipPath>
    <linearGradient id="linear-gradient-5" x1="-585.86" y1="843.45" x2="-584.86" y2="843.45" gradientTransform="translate(8848.38 12802.98) scale(15.07 -15.07)" gradientUnits="userSpaceOnUse">
      <stop offset="0" stop-color="#96999b"/>
      <stop offset="1" stop-color="#000"/>
    </linearGradient>
    <clipPath id="clippath-5">
      <path class="cls-11" d="M30.9,96.33c.27.35.56.66.86.92l-.13.38-.26.23-.12,1.37h.47l.72,4.88h3.15v-4.18h3.43v4.18h3.15l.72-4.88h.47l-.12-1.37-.26-.23-.21-.34c.66-.49,1.13-1.13,1.51-1.84.38-.72.57-1.43.56-2.12l-13.94,3.01ZM37.24,83.84c-.35,1.52-1.18,2.68-2.44,3.59-1.04.75-2.07,1.53-3.06,2.35-.72.59-1.31,1.32-1.68,2.2-.35.82-.36,1.65-.15,2.42l14.31-3.09c-.14-.23-.31-.46-.5-.68-1.02-1.18-2.27-2.08-3.54-2.95-1.06-.73-1.99-1.57-2.47-2.8-.15-.38-.26-.76-.4-1.18-.04.08-.06.11-.07.14"/>
    </clipPath>
    <linearGradient id="linear-gradient-6" x1="-585.86" y1="843.45" x2="-584.86" y2="843.45" gradientTransform="translate(8857.49 12803.01) scale(15.07 -15.07)" gradientUnits="userSpaceOnUse">
      <stop offset="0" stop-color="#96999b"/>
      <stop offset="1" stop-color="#000"/>
    </linearGradient>
    <clipPath id="clippath-6">
      <path class="cls-11" d="M39.99,96.33c.27.35.57.66.86.92l-.13.37-.26.23-.12,1.37h.47l.72,4.87h3.15v-4.18h3.43v4.18h3.15l.72-4.87h.47l-.12-1.37-.25-.23-.21-.34c.66-.49,1.13-1.13,1.51-1.84.38-.72.57-1.43.56-2.12l-13.94,3ZM46.33,83.84c-.35,1.52-1.18,2.68-2.44,3.59-1.04.75-2.07,1.53-3.06,2.35-.72.6-1.31,1.33-1.68,2.2-.35.82-.36,1.65-.15,2.42l14.31-3.09c-.14-.23-.31-.46-.5-.68-1.02-1.18-2.26-2.08-3.54-2.95-1.06-.73-1.99-1.57-2.47-2.8-.15-.38-.26-.77-.4-1.18-.04.08-.06.11-.07.14"/>
    </clipPath>
    <linearGradient id="linear-gradient-7" x1="-585.86" y1="843.45" x2="-584.86" y2="843.45" gradientTransform="translate(8867.01 12803.62) scale(15.07 -15.07)" gradientUnits="userSpaceOnUse">
      <stop offset="0" stop-color="#96999b"/>
      <stop offset="1" stop-color="#000"/>
    </linearGradient>
    <clipPath id="clippath-7">
      <polygon class="cls-11" points="52.02 91.47 52.02 94.47 49.43 92.96 48.08 95.43 50.62 96.89 48.08 98.3 49.43 100.77 52.02 99.26 52.02 102.21 54.75 102.21 54.75 99.26 57.33 100.77 58.68 98.3 56.21 96.89 58.68 95.43 57.33 92.96 54.75 94.47 54.75 91.47 52.02 91.47"/>
    </clipPath>
    <linearGradient id="linear-gradient-8" x1="-585.86" y1="843.45" x2="-584.86" y2="843.45" gradientTransform="translate(-6150.01 -8841.71) rotate(-180) scale(10.6 -10.6)" gradientUnits="userSpaceOnUse">
      <stop offset="0" stop-color="#231f20"/>
      <stop offset=".1" stop-color="#231f20"/>
      <stop offset="1" stop-color="#6d6e70"/>
    </linearGradient>
    <clipPath id="clippath-8">
      <path class="cls-11" d="M23.32,70.58c.27.35.57.66.86.91l-.13.38-.26.23-.12,1.37h.47l.72,4.88h3.15v-4.18h3.43v4.18h3.15l.72-4.88h.47l-.12-1.37-.25-.23-.21-.34c.66-.49,1.13-1.13,1.51-1.84.38-.72.57-1.43.56-2.12l-13.94,3.01ZM29.66,58.09c-.35,1.51-1.18,2.68-2.44,3.59-1.04.75-2.07,1.53-3.06,2.35-.72.6-1.31,1.33-1.68,2.2-.35.82-.36,1.65-.15,2.42l14.31-3.09c-.14-.23-.31-.46-.5-.68-1.02-1.18-2.27-2.08-3.54-2.95-1.06-.73-1.99-1.57-2.47-2.8-.15-.38-.26-.77-.4-1.19-.04.08-.06.11-.07.14"/>
    </clipPath>
    <linearGradient id="linear-gradient-9" x1="-585.86" y1="843.45" x2="-584.86" y2="843.45" gradientTransform="translate(8849.92 12777.26) scale(15.07 -15.07)" gradientUnits="userSpaceOnUse">
      <stop offset="0" stop-color="#96999b"/>
      <stop offset="1" stop-color="#000"/>
    </linearGradient>
    <clipPath id="clippath-9">
      <path class="cls-11" d="M32.41,70.58c.27.35.57.66.86.91l-.13.38-.26.23-.12,1.37h.47l.72,4.88h3.15v-4.18h3.43v4.18h3.15l.72-4.88h.47l-.12-1.37-.25-.23-.21-.34c.66-.49,1.13-1.13,1.51-1.84.38-.72.57-1.43.56-2.12l-13.94,3.01ZM38.75,58.09c-.35,1.51-1.18,2.68-2.44,3.59-1.04.75-2.07,1.53-3.06,2.35-.72.6-1.31,1.33-1.68,2.2-.35.82-.36,1.65-.15,2.42l14.31-3.09c-.14-.23-.31-.46-.5-.68-1.02-1.18-2.27-2.08-3.54-2.95-1.06-.73-1.99-1.57-2.48-2.8-.15-.38-.26-.77-.4-1.19-.04.08-.06.11-.07.14"/>
    </clipPath>
    <linearGradient id="linear-gradient-10" x1="-585.86" y1="843.45" x2="-584.86" y2="843.45" gradientTransform="translate(8859.4 12777.82) scale(15.07 -15.07)" gradientUnits="userSpaceOnUse">
      <stop offset="0" stop-color="#96999b"/>
      <stop offset="1" stop-color="#000"/>
    </linearGradient>
    <clipPath id="clippath-10">
      <polygon class="cls-11" points="44.45 65.72 44.45 68.72 41.86 67.2 40.51 69.68 43.04 71.14 40.51 72.54 41.86 75.02 44.45 73.51 44.45 76.45 47.17 76.45 47.17 73.51 49.76 75.02 51.11 72.54 48.63 71.14 51.11 69.68 49.76 67.2 47.17 68.72 47.17 65.72 44.45 65.72"/>
    </clipPath>
    <linearGradient id="linear-gradient-11" x1="-585.86" y1="843.45" x2="-584.86" y2="843.45" gradientTransform="translate(-6157.59 -8867.46) rotate(-180) scale(10.6 -10.6)" gradientUnits="userSpaceOnUse">
      <stop offset="0" stop-color="#231f20"/>
      <stop offset=".1" stop-color="#231f20"/>
      <stop offset="1" stop-color="#6d6e70"/>
    </linearGradient>
    <clipPath id="clippath-11">
      <path class="cls-11" d="M.38,66.61v4.88c0,2.8,3.96,5.08,8.83,5.08s8.83-2.27,8.83-5.08v-4.88c0-2.8-3.96-5.08-8.83-5.08S.38,63.8.38,66.61"/>
    </clipPath>
    <linearGradient id="linear-gradient-12" x1="-585.86" y1="843.45" x2="-584.86" y2="843.45" gradientTransform="translate(10350.45 14969.86) scale(17.67 -17.67)" gradientUnits="userSpaceOnUse">
      <stop offset="0" stop-color="#674026"/>
      <stop offset="1" stop-color="#d5a65c"/>
    </linearGradient>
    <clipPath id="clippath-12">
      <polygon class="cls-11" points="26.33 7.07 26.33 9.51 27.87 9.51 27.87 11.95 26.09 11.95 21.39 20.72 24.88 23.28 38.02 23.28 41.51 20.72 36.81 11.95 35.04 11.95 35.04 9.51 36.57 9.51 36.57 7.07 26.33 7.07"/>
    </clipPath>
    <linearGradient id="linear-gradient-13" x1="-585.86" y1="843.45" x2="-584.86" y2="843.45" gradientTransform="translate(11809.51 16986.32) scale(20.12 -20.12)" gradientUnits="userSpaceOnUse">
      <stop offset="0" stop-color="#808184"/>
      <stop offset="1" stop-color="#060000"/>
    </linearGradient>
    <clipPath id="clippath-13">
      <path class="cls-11" d="M37.64,5.17c-2.65,1.98-4.93,4.33-6.84,7.03-1.91,2.7-3.37,5.61-4.43,8.81.84-.48,1.6-.92,2.38-1.35.28-.15.46-.32.5-.65.02-.21.11-.41.18-.61.44-1.34,1.03-2.61,2.03-3.63.18-.18.44-.32.68-.4.49-.16,1-.07,1.5.02.85.14,1.69.32,2.55.42.68.08,1.37.01,1.86-.57.53-.63,1.06-1.28,1.58-1.92.01-.01,0-.04,0-.07-1.11-.26-2.17-.6-3.05-1.44.23-.01.39-.01.55-.03,1.41-.13,2.76-.52,4.09-.98.07-.02.15-.06.18-.11.17-.25.33-.51.5-.79-.79-.29-1.56-.59-2.18-1.23,1.1-.04,2.12-.25,3.12-.54.07-.02.16-.04.19-.09.28-.45.54-.9.82-1.36-.71-.29-1.39-.57-1.87-1.08.86-.16,1.72-.31,2.58-.48.12-.02.27-.14.32-.25.38-.73.74-1.47,1.08-2.21.15-.33.26-.67.41-1.07-3.2,1.07-6.1,2.58-8.76,4.56"/>
    </clipPath>
    <linearGradient id="linear-gradient-14" x1="-585.86" y1="843.45" x2="-584.86" y2="843.45" gradientTransform="translate(11758.43 16901.23) scale(20.03 -20.03)" gradientUnits="userSpaceOnUse">
      <stop offset="0" stop-color="#674026"/>
      <stop offset="1" stop-color="#d5a65c"/>
    </linearGradient>
    <clipPath id="clippath-14">
      <polygon class="cls-11" points="16.37 12.21 13.6 12.21 13.6 14.43 16.36 14.43 16.36 17.18 18.59 17.18 18.6 14.44 21.36 14.44 21.36 12.22 18.6 12.22 18.6 9.47 16.37 9.46 16.37 12.21"/>
    </clipPath>
    <linearGradient id="linear-gradient-15" x1="-585.86" y1="843.45" x2="-584.86" y2="843.45" gradientTransform="translate(4561.97 6561.53) scale(7.76 -7.76)" gradientUnits="userSpaceOnUse">
      <stop offset="0" stop-color="#808184"/>
      <stop offset="1" stop-color="#060000"/>
    </linearGradient>
  </defs>
  <g class="cls-35">
    <rect class="cls-34" x=".38" y="34.87" width="17.67" height="15.03"/>
  </g>
  <g>
    <path class="cls-12" d="M18.04,44.82c0,2.8-3.95,5.08-8.83,5.08S.38,47.63.38,44.82v-4.88c0-2.8,3.96-5.08,8.83-5.08s8.83,2.27,8.83,5.08v4.88Z"/>
    <path class="cls-10" d="M18.05,39.94c0,2.81-3.96,5.08-8.84,5.08S.37,42.75.37,39.94"/>
    <polygon class="cls-15" points="8.85 36.94 6.19 40.11 8.85 43.29 10.72 43.29 8.06 40.11 10.72 36.94 8.85 36.94"/>
  </g>
  <g class="cls-19">
    <rect class="cls-6" x="22.13" y="30.67" width="15.15" height="20.4"/>
  </g>
  <path class="cls-12" d="M36.64,38.29c-.14-.23-.31-.46-.5-.68-1.02-1.18-2.27-2.08-3.54-2.95-1.06-.73-1.99-1.57-2.47-2.8-.15-.38-.26-.77-.4-1.18-.04.08-.06.11-.07.14-.35,1.51-1.18,2.68-2.44,3.59-1.04.75-2.07,1.53-3.06,2.35-.72.59-1.31,1.33-1.68,2.2-.35.82-.35,1.65-.15,2.42l14.31-3.09ZM23.32,43.3c.27.35.56.66.86.92l-.13.37-.25.23-.12,1.37h.47l.72,4.88h3.15v-4.18h3.43v4.18h3.15l.72-4.88h.47l-.12-1.37-.25-.23-.21-.33c.66-.49,1.13-1.13,1.51-1.84.38-.72.57-1.43.56-2.12l-13.94,3Z"/>
  <g class="cls-32">
    <rect class="cls-18" x="31.42" y="38.44" width="10.6" height="10.74"/>
  </g>
  <polygon class="cls-9" points="31.42 42.41 32.77 39.93 35.35 41.44 35.35 38.44 38.08 38.44 38.08 41.44 40.67 39.93 42.02 42.41 39.54 43.87 42.02 45.27 40.67 47.75 38.08 46.23 38.08 49.18 35.35 49.18 35.35 46.23 32.77 47.75 31.42 45.27 33.95 43.87 31.42 42.41"/>
  <g class="cls-24">
    <rect class="cls-17" x=".38" y="87.9" width="17.67" height="15.03"/>
  </g>
  <g>
    <path class="cls-12" d="M18.04,97.85c0,2.8-3.95,5.08-8.83,5.08S.38,100.66.38,97.85v-4.88c0-2.8,3.96-5.08,8.83-5.08s8.83,2.27,8.83,5.08v4.88Z"/>
    <path class="cls-10" d="M18.05,92.97c0,2.81-3.96,5.08-8.84,5.08S.37,95.77.37,92.97"/>
    <polygon class="cls-15" points="9.57 89.96 12.23 93.14 9.57 96.32 7.71 96.32 10.36 93.14 7.71 89.97 9.57 89.96"/>
  </g>
  <g class="cls-5">
    <rect class="cls-20" x="20.61" y="83.7" width="15.15" height="20.4"/>
  </g>
  <path class="cls-12" d="M35.13,91.31c-.14-.23-.31-.46-.5-.68-1.02-1.18-2.27-2.08-3.54-2.95-1.06-.73-1.99-1.57-2.47-2.8-.15-.38-.26-.77-.4-1.18-.04.08-.06.11-.07.14-.35,1.52-1.18,2.68-2.44,3.59-1.04.75-2.07,1.53-3.06,2.35-.72.6-1.31,1.33-1.68,2.2-.35.82-.35,1.65-.15,2.42l14.31-3.09ZM21.8,96.33c.27.35.56.66.86.92l-.13.38-.26.23-.12,1.37h.47l.72,4.88h3.15v-4.18h3.43v4.18h3.15l.72-4.88h.47l-.12-1.37-.25-.23-.21-.34c.66-.49,1.13-1.13,1.51-1.84.38-.72.57-1.43.56-2.12l-13.94,3Z"/>
  <g class="cls-21">
    <rect class="cls-31" x="29.7" y="83.7" width="15.15" height="20.4"/>
  </g>
  <path class="cls-12" d="M44.22,91.32c-.14-.23-.31-.45-.5-.68-1.02-1.18-2.27-2.08-3.54-2.95-1.06-.73-1.99-1.57-2.47-2.8-.15-.38-.26-.76-.4-1.18-.04.08-.06.11-.07.14-.35,1.52-1.18,2.68-2.44,3.59-1.04.75-2.07,1.53-3.06,2.35-.72.6-1.31,1.33-1.68,2.2-.35.82-.35,1.65-.15,2.42l14.31-3.09ZM30.9,96.33c.27.35.56.66.86.92l-.13.38-.25.23-.12,1.37h.47l.72,4.88h3.15v-4.18h3.43v4.18h3.15l.72-4.88h.47l-.12-1.37-.25-.23-.21-.34c.66-.49,1.13-1.13,1.51-1.84.38-.72.57-1.43.56-2.12l-13.94,3Z"/>
  <g class="cls-3">
    <rect class="cls-28" x="38.79" y="83.7" width="15.15" height="20.4"/>
  </g>
  <path class="cls-12" d="M53.31,91.32c-.14-.23-.31-.46-.5-.68-1.02-1.18-2.27-2.08-3.54-2.95-1.06-.73-1.99-1.57-2.47-2.8-.15-.38-.26-.77-.4-1.18-.04.08-.06.11-.07.14-.35,1.52-1.18,2.68-2.44,3.59-1.04.75-2.07,1.53-3.06,2.35-.72.6-1.31,1.33-1.68,2.2-.35.82-.35,1.65-.15,2.42l14.31-3.09ZM39.99,96.33c.27.35.56.66.86.92l-.13.38-.26.23-.12,1.37h.47l.72,4.88h3.15v-4.18h3.43v4.18h3.15l.72-4.88h.47l-.12-1.37-.25-.23-.21-.34c.66-.49,1.13-1.13,1.51-1.84.38-.72.57-1.43.56-2.12l-13.94,3Z"/>
  <g class="cls-4">
    <rect class="cls-23" x="48.08" y="91.47" width="10.6" height="10.74"/>
  </g>
  <polygon class="cls-9" points="48.08 95.43 49.43 92.96 52.02 94.47 52.02 91.47 54.75 91.47 54.75 94.47 57.33 92.96 58.68 95.43 56.21 96.89 58.68 98.3 57.33 100.77 54.75 99.26 54.75 102.21 52.02 102.21 52.02 99.26 49.43 100.77 48.08 98.3 50.62 96.89 48.08 95.43"/>
  <g class="cls-22">
    <rect class="cls-29" x="22.13" y="57.94" width="15.15" height="20.4"/>
  </g>
  <path class="cls-12" d="M36.64,65.56c-.14-.23-.31-.46-.5-.68-1.02-1.18-2.27-2.08-3.54-2.95-1.06-.73-1.99-1.57-2.47-2.8-.15-.38-.26-.76-.4-1.18-.04.08-.06.11-.07.14-.35,1.52-1.18,2.68-2.44,3.59-1.04.75-2.07,1.53-3.06,2.35-.72.6-1.31,1.33-1.68,2.2-.35.82-.35,1.65-.15,2.42l14.31-3.09ZM23.32,70.58c.27.35.56.66.86.92l-.13.37-.25.23-.12,1.37h.47l.72,4.88h3.15v-4.18h3.43v4.18h3.15l.72-4.88h.47l-.12-1.37-.25-.23-.21-.34c.66-.49,1.13-1.13,1.51-1.84.38-.72.57-1.43.56-2.12l-13.94,3Z"/>
  <g class="cls-13">
    <rect class="cls-7" x="31.22" y="57.94" width="15.15" height="20.4"/>
  </g>
  <path class="cls-12" d="M45.73,65.56c-.14-.23-.31-.46-.5-.68-1.02-1.18-2.27-2.08-3.54-2.95-1.06-.73-1.99-1.57-2.47-2.8-.15-.38-.26-.76-.4-1.18-.04.08-.06.11-.07.14-.35,1.52-1.18,2.68-2.44,3.59-1.04.75-2.07,1.53-3.06,2.35-.72.6-1.31,1.33-1.68,2.2-.35.82-.35,1.65-.15,2.42l14.31-3.09ZM32.41,70.58c.27.35.56.66.86.92l-.13.37-.26.23-.12,1.37h.47l.72,4.88h3.15v-4.18h3.43v4.18h3.15l.72-4.88h.47l-.12-1.37-.25-.23-.21-.34c.66-.49,1.13-1.13,1.51-1.84.38-.72.57-1.43.56-2.12l-13.94,3Z"/>
  <g class="cls-14">
    <rect class="cls-30" x="40.51" y="65.72" width="10.6" height="10.74"/>
  </g>
  <polygon class="cls-9" points="40.51 69.68 41.86 67.2 44.45 68.72 44.45 65.72 47.17 65.72 47.17 68.72 49.76 67.2 51.11 69.68 48.63 71.14 51.11 72.54 49.76 75.02 47.17 73.51 47.17 76.45 44.45 76.45 44.45 73.51 41.86 75.02 40.51 72.54 43.04 71.14 40.51 69.68"/>
  <g class="cls-16">
    <rect class="cls-8" x=".38" y="61.53" width="17.67" height="15.03"/>
  </g>
  <g>
    <path class="cls-12" d="M18.04,71.49c0,2.8-3.95,5.08-8.83,5.08S.38,74.29.38,71.49v-4.88c0-2.8,3.96-5.08,8.83-5.08s8.83,2.27,8.83,5.08v4.88Z"/>
    <path class="cls-10" d="M18.05,66.6c0,2.81-3.96,5.08-8.84,5.08S.37,69.41.37,66.6"/>
    <rect class="cls-15" x="5.82" y="67.37" width="6.77" height="1.55"/>
    <rect class="cls-15" x="5.82" y="64.63" width="6.77" height="1.55"/>
  </g>
  <g class="cls-25">
    <rect class="cls-2" x="21.39" y="7.07" width="20.12" height="16.21"/>
  </g>
  <polygon class="cls-12" points="36.57 7.07 36.57 9.51 35.04 9.51 35.04 11.95 36.81 11.95 41.51 20.72 38.02 23.28 24.88 23.28 21.39 20.72 26.09 11.95 27.87 11.95 27.87 9.51 26.33 9.51 26.33 7.07 36.57 7.07"/>
  <g class="cls-33">
    <rect class="cls-26" x="26.38" y=".6" width="20.02" height="20.4"/>
  </g>
  <path class="cls-12" d="M46.4.61c-.15.4-.26.74-.41,1.07-.34.74-.71,1.48-1.08,2.21-.05.11-.2.23-.32.25-.86.17-1.72.32-2.58.48.48.51,1.16.79,1.87,1.08-.28.46-.55.91-.83,1.36-.03.05-.12.07-.19.09-1,.29-2.02.5-3.12.54.62.64,1.39.94,2.18,1.23-.17.27-.33.53-.5.79-.04.05-.11.09-.18.11-1.33.46-2.68.84-4.09.98-.16.01-.32.02-.55.03.89.84,1.95,1.18,3.05,1.44,0,.03,0,.06,0,.07-.53.64-1.05,1.29-1.58,1.92-.49.58-1.18.65-1.86.57-.86-.1-1.7-.28-2.55-.42-.5-.08-1.01-.17-1.5-.02-.25.08-.5.22-.68.4-1.01,1.02-1.59,2.28-2.03,3.63-.07.2-.16.4-.18.61-.04.33-.22.5-.5.65-.78.42-1.55.87-2.38,1.35,1.07-3.19,2.53-6.11,4.43-8.8,1.91-2.7,4.19-5.05,6.84-7.03,2.65-1.98,5.55-3.49,8.76-4.57Z"/>
  <g class="cls-27">
    <rect class="cls-1" x="13.6" y="9.46" width="7.76" height="7.72"/>
  </g>
  <polygon class="cls-12" points="18.6 12.22 21.36 12.22 21.36 14.44 18.6 14.44 18.59 17.19 16.36 17.18 16.36 14.43 13.6 14.43 13.6 12.21 16.37 12.21 16.37 9.46 18.6 9.47 18.6 12.22"/>
</svg>