<?xml version="1.0" encoding="UTF-8"?>
<svg id="Layer_1" data-name="Layer 1" xmlns="http://www.w3.org/2000/svg" xmlns:xlink="http://www.w3.org/1999/xlink" viewBox="0 0 66.65 25.3">
  <defs>
    <style>
      .cls-1 {
        stroke-width: .7px;
      }

      .cls-1, .cls-2 {
        stroke: #fff;
        stroke-miterlimit: 10;
      }

      .cls-1, .cls-2, .cls-3 {
        fill: none;
      }

      .cls-2 {
        stroke-width: .94px;
      }

      .cls-4 {
        fill: url(#linear-gradient-2);
      }

      .cls-5 {
        fill: #fff;
      }

      .cls-6 {
        fill: url(#linear-gradient-4);
      }

      .cls-7 {
        fill: url(#linear-gradient-3);
      }

      .cls-8 {
        clip-path: url(#clippath-1);
      }

      .cls-9 {
        clip-path: url(#clippath-3);
      }

      .cls-10 {
        clip-path: url(#clippath-2);
      }

      .cls-11 {
        fill: url(#linear-gradient);
      }

      .cls-12 {
        clip-path: url(#clippath);
      }
    </style>
    <clipPath id="clippath">
      <path class="cls-3" d="M3.9,12.75c0,4.7,3.81,8.52,8.51,8.52s8.51-3.82,8.51-8.52-3.81-8.52-8.51-8.52S3.9,8.04,3.9,12.75"/>
    </clipPath>
    <linearGradient id="linear-gradient" x1="-40.89" y1="407.23" x2="-39.89" y2="407.23" gradientTransform="translate(700 6945.22) scale(17.02 -17.02)" gradientUnits="userSpaceOnUse">
      <stop offset="0" stop-color="#e4a640"/>
      <stop offset=".24" stop-color="#d88f39"/>
      <stop offset=".74" stop-color="#c3642c"/>
      <stop offset="1" stop-color="#bb5427"/>
    </linearGradient>
    <clipPath id="clippath-1">
      <path class="cls-3" d="M13.74,19.05c-.55.08-1.11.14-1.67.14-.41,0-.83-.02-1.24-.05-.73-.04-1.46-.08-2.17,0-1.81.23-3.28,1.21-4.63,2.61,2,.58,3.84.57,5.76-.02-.21.31-.49.54-.77.76-.87.68-.87.68-.44,1.68.07.16.15.31.25.52,1.75-.61,2.6-2.08,3.62-3.45.56.73,1.04,1.43,1.59,2.06.55.63,1.22,1.14,2.08,1.38.24-.58.46-1.11.65-1.57-.6-.48-1.12-.9-1.65-1.32.03-.06.06-.11.08-.16,1.86.69,3.71.69,5.65.13-1.48-1.72-3.97-2.79-6.22-2.79-.3,0-.6.02-.89.06M.95,15.97c1.98,2.44,5.49,3.37,8.67,2.32-1.55-1.84-3.86-2.78-6.08-2.78-.9,0-1.78.15-2.59.46M15.28,18.31c3.18,1.03,6.67.08,8.62-2.35-.68-.31-1.51-.45-2.39-.45-2.51,0-5.4,1.16-6.23,2.8M.58,9.13c.62,3.18,3.75,6.25,6.38,6.29-.4-2.93-3.67-6.18-6.38-6.29ZM17.92,15.45c2.84-.3,5.92-3.37,6.33-6.34-2.93.35-6.17,3.63-6.33,6.34M18.77,11.75c2.61-2.17,3.35-5.97,2.27-8.63-2.6,2.12-3.34,5.97-2.27,8.63M6.11,11.77c1.21-2.53-.07-7.3-2.29-8.65-1.04,2.78-.3,6.43,2.29,8.65M17.39,9.44c1.19-2.63-.03-7.19-2.28-8.66-1.05,2.63-.38,6.39,2.28,8.66M7.49,9.46c2.67-2.42,3.32-6.04,2.25-8.68-2.55,2.16-3.33,5.83-2.25,8.68"/>
    </clipPath>
    <linearGradient id="linear-gradient-2" x1="-40.89" y1="407.25" x2="-39.89" y2="407.25" gradientTransform="translate(968.84 9656.41) scale(23.68 -23.68)" gradientUnits="userSpaceOnUse">
      <stop offset="0" stop-color="#72bf45"/>
      <stop offset=".75" stop-color="#27813a"/>
      <stop offset="1" stop-color="#0e6c37"/>
    </linearGradient>
    <clipPath id="clippath-2">
      <polygon class="cls-3" points="47.23 8.17 47.23 10.46 48.67 10.46 48.67 12.75 47.01 12.75 42.6 20.98 45.87 23.39 58.2 23.39 61.48 20.98 57.07 12.75 55.4 12.75 55.4 10.46 56.84 10.46 56.84 8.17 47.23 8.17"/>
    </clipPath>
    <linearGradient id="linear-gradient-3" x1="-40.89" y1="407.34" x2="-39.89" y2="407.34" gradientTransform="translate(814.56 7705.92) scale(18.88 -18.88)" gradientUnits="userSpaceOnUse">
      <stop offset="0" stop-color="#808285"/>
      <stop offset=".19" stop-color="#6d6e71"/>
      <stop offset=".57" stop-color="#3c3d3e"/>
      <stop offset="1" stop-color="#000"/>
    </linearGradient>
    <clipPath id="clippath-3">
      <path class="cls-3" d="M57.85,6.39c-2.49,1.86-4.62,4.07-6.41,6.6-1.79,2.53-3.16,5.27-4.16,8.26.79-.45,1.5-.87,2.24-1.26.26-.14.43-.3.47-.61.02-.19.11-.38.17-.57.41-1.26.96-2.45,1.91-3.4.17-.17.41-.3.64-.37.46-.15.94-.06,1.4.02.8.13,1.59.3,2.39.39.64.08,1.28.01,1.75-.53.5-.59.99-1.2,1.49-1.8.01-.01,0-.04,0-.07-1.04-.24-2.03-.57-2.87-1.35.21-.01.36-.01.51-.03,1.32-.12,2.59-.49,3.84-.92.06-.02.14-.05.17-.11.16-.24.31-.48.47-.74-.74-.28-1.46-.55-2.05-1.15,1.03-.04,1.99-.24,2.93-.5.06-.02.15-.04.18-.08.26-.42.51-.84.77-1.27-.67-.27-1.3-.54-1.75-1.01.81-.15,1.62-.29,2.42-.45.11-.02.25-.13.3-.23.35-.68.69-1.38,1.01-2.08.14-.31.24-.63.38-1.01-3.01,1.01-5.73,2.42-8.22,4.28"/>
    </clipPath>
    <linearGradient id="linear-gradient-4" x1="-40.89" y1="407.23" x2="-39.89" y2="407.23" gradientTransform="translate(815.57 7663.23) scale(18.79 -18.79)" gradientUnits="userSpaceOnUse">
      <stop offset="0" stop-color="#674026"/>
      <stop offset=".22" stop-color="#79512f"/>
      <stop offset=".65" stop-color="#a97d46"/>
      <stop offset="1" stop-color="#d5a65c"/>
    </linearGradient>
  </defs>
  <rect class="cls-5" x="28.73" y="13.57" width="9.31" height="2.13"/>
  <rect class="cls-5" x="28.73" y="9.79" width="9.31" height="2.13"/>
  <g class="cls-12">
    <rect class="cls-11" x="3.9" y="4.23" width="17.02" height="17.04"/>
  </g>
  <path class="cls-1" d="M20.93,12.75c0,4.7-3.81,8.52-8.51,8.52S3.9,17.45,3.9,12.75,7.71,4.23,12.41,4.23s8.51,3.82,8.51,8.52Z"/>
  <g class="cls-8">
    <rect class="cls-4" x=".58" y=".78" width="23.68" height="23.94"/>
  </g>
  <path class="cls-2" d="M7.49,9.46c2.67-2.42,3.32-6.04,2.25-8.68-2.55,2.16-3.33,5.83-2.25,8.68ZM.57,9.14c.62,3.17,3.75,6.24,6.38,6.29-.4-2.93-3.67-6.18-6.38-6.29ZM21.04,3.13c-2.6,2.12-3.34,5.97-2.27,8.63,2.61-2.17,3.35-5.97,2.27-8.63ZM6.11,11.76c1.21-2.53-.07-7.3-2.29-8.65-1.03,2.78-.3,6.43,2.29,8.65ZM24.25,9.11c-2.93.35-6.17,3.62-6.33,6.35,2.84-.3,5.92-3.37,6.33-6.35ZM17.39,9.44c1.18-2.63-.03-7.19-2.28-8.66-1.05,2.63-.38,6.39,2.28,8.66ZM9.62,18.29c-2.17-2.58-5.85-3.39-8.67-2.32,1.98,2.44,5.49,3.37,8.67,2.32ZM23.9,15.96c-2.62-1.2-7.5.13-8.62,2.35,3.18,1.03,6.67.08,8.62-2.35ZM8.82,24.71c1.75-.61,2.6-2.08,3.62-3.45.56.73,1.04,1.43,1.59,2.06.55.63,1.22,1.14,2.08,1.38.24-.58.46-1.11.65-1.57-.6-.48-1.12-.9-1.65-1.32.03-.05.06-.11.08-.16,1.86.69,3.71.69,5.65.13-1.68-1.95-4.67-3.07-7.1-2.73-.55.08-1.11.14-1.67.14-1.14,0-2.3-.18-3.41-.04-1.81.23-3.28,1.21-4.63,2.61,1.99.58,3.84.57,5.76-.02-.21.31-.49.54-.78.76q-.87.68-.44,1.68c.07.16.15.31.25.52Z"/>
  <g class="cls-10">
    <rect class="cls-7" x="42.6" y="8.17" width="18.88" height="15.21"/>
  </g>
  <polygon class="cls-1" points="56.84 8.17 56.84 10.46 55.4 10.46 55.4 12.75 57.07 12.75 61.47 20.98 58.2 23.39 45.87 23.39 42.6 20.98 47 12.75 48.67 12.75 48.67 10.46 47.23 10.46 47.23 8.17 56.84 8.17"/>
  <g class="cls-9">
    <rect class="cls-6" x="47.27" y="2.11" width="18.79" height="19.14"/>
  </g>
  <path class="cls-1" d="M66.06,2.11c-.14.37-.24.7-.38,1.01-.32.7-.66,1.39-1.01,2.08-.05.1-.19.21-.3.23-.81.16-1.62.3-2.42.45.45.48,1.09.74,1.75,1.01-.26.43-.51.86-.77,1.27-.03.05-.12.07-.18.08-.94.27-1.89.46-2.93.5.59.6,1.3.88,2.05,1.15-.16.25-.31.5-.47.74-.03.05-.11.08-.17.1-1.25.43-2.52.79-3.84.92-.15.01-.3.02-.51.03.83.79,1.83,1.11,2.87,1.35,0,.02,0,.05,0,.07-.49.6-.99,1.21-1.49,1.8-.46.55-1.1.61-1.74.53-.8-.1-1.6-.26-2.39-.39-.47-.08-.94-.16-1.4-.02-.23.07-.47.2-.64.37-.95.96-1.5,2.14-1.91,3.4-.06.19-.15.38-.17.57-.03.31-.21.47-.47.61-.73.39-1.45.82-2.24,1.26,1-2.99,2.37-5.73,4.16-8.26,1.79-2.53,3.93-4.74,6.41-6.6,2.49-1.86,5.21-3.27,8.22-4.28Z"/>
</svg>