<?xml version="1.0" encoding="UTF-8"?>
<svg id="Layer_1" xmlns="http://www.w3.org/2000/svg" version="1.1" xmlns:xlink="http://www.w3.org/1999/xlink" viewBox="0 0 60.38 25.38">
  <!-- Generator: Adobe Illustrator 29.8.3, SVG Export Plug-In . SVG Version: 2.1.1 Build 3)  -->
  <defs>
    <style>
      .st0 {
        fill: url(#linear-gradient2);
      }

      .st1 {
        stroke-width: .7px;
      }

      .st1, .st2 {
        stroke: #fff;
        stroke-miterlimit: 10;
      }

      .st1, .st2, .st3 {
        fill: none;
      }

      .st2 {
        stroke-width: .94px;
      }

      .st4 {
        fill: #fff;
      }

      .st5 {
        fill: url(#linear-gradient1);
      }

      .st6 {
        fill: url(#linear-gradient);
      }

      .st7 {
        clip-path: url(#clippath);
      }
    </style>
    <linearGradient id="linear-gradient" x1="-40.89" y1="495.84" x2="-39.89" y2="495.84" gradientTransform="translate(700 8453.69) scale(17.02 -17.02)" gradientUnits="userSpaceOnUse">
      <stop offset="0" stop-color="#e4a640"/>
      <stop offset=".24" stop-color="#d88f39"/>
      <stop offset=".74" stop-color="#c3642c"/>
      <stop offset="1" stop-color="#bb5427"/>
    </linearGradient>
    <clipPath id="clippath">
      <path class="st3" d="M13.74,19.05c-.55.08-1.11.14-1.67.14-.41,0-.83-.02-1.24-.05-.73-.04-1.46-.08-2.17,0-1.81.23-3.28,1.21-4.63,2.61,1.99.58,3.84.57,5.76-.02-.21.31-.49.54-.78.76q-.87.68-.44,1.68c.07.15.15.31.25.52,1.75-.61,2.6-2.08,3.61-3.45.56.73,1.04,1.43,1.59,2.06.55.63,1.22,1.14,2.08,1.38.24-.58.46-1.11.65-1.57-.6-.48-1.12-.9-1.65-1.32.03-.05.05-.11.08-.16,1.86.69,3.71.69,5.65.13-1.48-1.72-3.97-2.79-6.21-2.79-.3,0-.6.02-.89.06M.94,15.97c1.98,2.44,5.49,3.37,8.67,2.32-1.55-1.84-3.86-2.78-6.09-2.78-.9,0-1.78.15-2.59.46M15.28,18.31c3.18,1.03,6.67.08,8.62-2.35-.68-.31-1.51-.45-2.39-.45-2.51,0-5.4,1.16-6.23,2.8M.57,9.13c.62,3.18,3.75,6.25,6.38,6.29-.4-2.93-3.67-6.18-6.38-6.29ZM17.92,15.45c2.84-.3,5.92-3.37,6.33-6.35-2.93.35-6.17,3.62-6.33,6.35M18.77,11.75c2.61-2.17,3.35-5.97,2.27-8.63-2.6,2.12-3.34,5.97-2.27,8.63M6.1,11.77c1.21-2.53-.07-7.3-2.29-8.65-1.04,2.78-.3,6.43,2.29,8.65M17.39,9.44c1.19-2.63-.03-7.19-2.28-8.65-1.05,2.63-.38,6.39,2.28,8.65M7.49,9.46c2.67-2.42,3.32-6.04,2.26-8.68-2.55,2.16-3.33,5.83-2.26,8.68"/>
    </clipPath>
    <linearGradient id="linear-gradient1" x1="-40.89" y1="495.86" x2="-39.89" y2="495.86" gradientTransform="translate(968.84 11754.69) scale(23.68 -23.68)" gradientUnits="userSpaceOnUse">
      <stop offset="0" stop-color="#72bf45"/>
      <stop offset=".75" stop-color="#27813a"/>
      <stop offset="1" stop-color="#0e6c37"/>
    </linearGradient>
    <linearGradient id="linear-gradient2" x1="-40.89" y1="495.53" x2="-39.89" y2="495.53" gradientTransform="translate(692.73 7868.17) scale(15.85 -15.85)" gradientUnits="userSpaceOnUse">
      <stop offset="0" stop-color="#97999c"/>
      <stop offset=".08" stop-color="#87898c"/>
      <stop offset=".4" stop-color="#4d4e50"/>
      <stop offset=".67" stop-color="#232424"/>
      <stop offset=".88" stop-color="#090909"/>
      <stop offset="1" stop-color="#000"/>
    </linearGradient>
  </defs>
  <rect class="st4" x="28.73" y="13.57" width="9.31" height="2.13"/>
  <rect class="st4" x="28.73" y="9.79" width="9.31" height="2.13"/>
  <rect class="st6" x="3.9" y="4.23" width="17.02" height="17.04"/>
  <path class="st1" d="M20.93,12.75c0,4.7-3.81,8.52-8.51,8.52S3.9,17.45,3.9,12.75,7.71,4.23,12.41,4.23s8.51,3.82,8.51,8.52Z"/>
  <g class="st7">
    <rect class="st5" x=".57" y=".78" width="23.68" height="23.94"/>
  </g>
  <path class="st2" d="M7.49,9.46c2.67-2.42,3.32-6.04,2.25-8.68-2.55,2.16-3.33,5.83-2.25,8.68ZM.57,9.14c.62,3.18,3.75,6.24,6.38,6.29-.4-2.93-3.67-6.18-6.38-6.29ZM21.03,3.13c-2.6,2.12-3.34,5.97-2.27,8.63,2.61-2.17,3.35-5.97,2.27-8.63ZM6.11,11.76c1.21-2.53-.07-7.3-2.29-8.65-1.03,2.78-.3,6.43,2.29,8.65ZM24.25,9.11c-2.93.35-6.17,3.62-6.33,6.35,2.84-.3,5.92-3.37,6.33-6.35ZM17.39,9.44c1.19-2.63-.03-7.19-2.28-8.66-1.05,2.63-.38,6.39,2.28,8.66ZM9.62,18.29c-2.17-2.58-5.85-3.39-8.67-2.32,1.99,2.44,5.49,3.37,8.67,2.32ZM23.9,15.96c-2.62-1.2-7.5.13-8.62,2.35,3.18,1.03,6.67.08,8.62-2.35ZM8.82,24.71c1.75-.61,2.6-2.08,3.62-3.45.56.73,1.04,1.43,1.59,2.06.55.63,1.22,1.14,2.08,1.38.24-.58.46-1.11.65-1.57-.59-.48-1.12-.9-1.65-1.32.03-.05.06-.11.08-.16,1.86.69,3.71.69,5.65.13-1.68-1.95-4.67-3.07-7.1-2.73-.55.08-1.11.14-1.67.14-1.14,0-2.3-.18-3.41-.04-1.81.23-3.28,1.21-4.63,2.61,1.99.58,3.84.57,5.76-.02-.22.31-.49.54-.78.76q-.87.68-.44,1.68c.07.16.15.31.25.52Z"/>
  <rect class="st0" x="44.52" y=".11" width="15.85" height="25.27"/>
  <polygon class="st4" points="53.99 14.3 53.98 18.13 50.9 18.12 50.91 14.29 47.09 14.29 47.1 11.2 50.91 11.2 50.92 7.37 54.01 7.37 54 11.21 57.82 11.21 57.81 14.3 53.99 14.3"/>
</svg>