<?xml version="1.0" encoding="UTF-8"?>
<svg id="Layer_1" data-name="Layer 1" xmlns="http://www.w3.org/2000/svg" xmlns:xlink="http://www.w3.org/1999/xlink" viewBox="0 0 60.73 25.97">
  <defs>
    <style>
      .cls-1 {
        stroke-width: .7px;
      }

      .cls-1, .cls-2 {
        stroke: #fff;
        stroke-miterlimit: 10;
      }

      .cls-1, .cls-2, .cls-3 {
        fill: none;
      }

      .cls-2 {
        stroke-width: .94px;
      }

      .cls-4 {
        fill: url(#linear-gradient-2);
      }

      .cls-5 {
        fill: #fff;
      }

      .cls-6 {
        fill: url(#linear-gradient-3);
      }

      .cls-7 {
        clip-path: url(#clippath-1);
      }

      .cls-8 {
        clip-path: url(#clippath-2);
      }

      .cls-9 {
        fill: url(#linear-gradient);
      }

      .cls-10 {
        clip-path: url(#clippath);
      }
    </style>
    <clipPath id="clippath">
      <path class="cls-3" d="M3.9,12.99c0,4.71,3.81,8.52,8.51,8.52s8.51-3.81,8.51-8.52-3.81-8.52-8.51-8.52S3.9,8.28,3.9,12.99"/>
    </clipPath>
    <linearGradient id="linear-gradient" x1="-40.89" y1="437.9" x2="-39.89" y2="437.9" gradientTransform="translate(700 7467.61) scale(17.02 -17.02)" gradientUnits="userSpaceOnUse">
      <stop offset="0" stop-color="#e4a640"/>
      <stop offset=".24" stop-color="#d88f39"/>
      <stop offset=".74" stop-color="#c3642c"/>
      <stop offset="1" stop-color="#bb5427"/>
    </linearGradient>
    <clipPath id="clippath-1">
      <path class="cls-3" d="M13.74,19.29c-.55.08-1.11.14-1.67.14-.41,0-.83-.02-1.24-.05-.73-.04-1.46-.08-2.17,0-1.81.23-3.28,1.21-4.63,2.61,1.99.58,3.84.57,5.76-.02-.21.31-.49.54-.78.76q-.87.68-.44,1.68c.07.16.15.31.25.52,1.75-.61,2.6-2.08,3.61-3.45.56.73,1.04,1.43,1.59,2.06.55.63,1.22,1.14,2.08,1.38.24-.58.46-1.11.65-1.57-.6-.48-1.12-.9-1.65-1.32.03-.06.05-.11.08-.16,1.86.69,3.71.69,5.65.13-1.48-1.72-3.97-2.79-6.21-2.79-.3,0-.6.02-.89.06M.94,16.21c1.98,2.44,5.49,3.37,8.67,2.32-1.55-1.84-3.86-2.78-6.08-2.78-.9,0-1.78.15-2.59.46M15.28,18.55c3.18,1.03,6.67.08,8.62-2.35-.68-.31-1.51-.45-2.39-.45-2.51,0-5.4,1.16-6.23,2.8M.57,9.38c.62,3.18,3.75,6.25,6.38,6.29-.4-2.93-3.67-6.18-6.38-6.29ZM17.92,15.69c2.84-.3,5.92-3.37,6.33-6.35-2.93.35-6.17,3.62-6.33,6.35M18.77,11.99c2.61-2.17,3.35-5.97,2.27-8.63-2.6,2.12-3.34,5.97-2.27,8.63M6.1,12.01c1.21-2.53-.07-7.3-2.29-8.65-1.04,2.78-.3,6.43,2.29,8.65M17.39,9.68c1.19-2.63-.03-7.19-2.28-8.65-1.05,2.63-.38,6.39,2.28,8.65M7.49,9.7c2.67-2.42,3.32-6.05,2.26-8.68-2.55,2.16-3.33,5.83-2.26,8.68"/>
    </clipPath>
    <linearGradient id="linear-gradient-2" x1="-40.89" y1="437.92" x2="-39.89" y2="437.92" gradientTransform="translate(968.84 10382.95) scale(23.68 -23.68)" gradientUnits="userSpaceOnUse">
      <stop offset="0" stop-color="#72bf45"/>
      <stop offset=".75" stop-color="#27813a"/>
      <stop offset="1" stop-color="#0e6c37"/>
    </linearGradient>
    <clipPath id="clippath-2">
      <path class="cls-3" d="M45.99.35c-.81,0-1.47.66-1.47,1.47v22.33c0,.45.2.85.52,1.12h14.82c.32-.27.52-.67.52-1.12V1.82c0-.81-.66-1.47-1.46-1.47h-12.92Z"/>
    </clipPath>
    <linearGradient id="linear-gradient-3" x1="-40.89" y1="437.61" x2="-39.89" y2="437.61" gradientTransform="translate(692.73 6949.94) scale(15.85 -15.85)" gradientUnits="userSpaceOnUse">
      <stop offset="0" stop-color="#72bf44"/>
      <stop offset=".37" stop-color="#4ea23f"/>
      <stop offset="1" stop-color="#0a6b37"/>
    </linearGradient>
  </defs>
  <rect class="cls-5" x="28.73" y="13.81" width="9.31" height="2.13"/>
  <rect class="cls-5" x="28.73" y="10.03" width="9.31" height="2.13"/>
  <g class="cls-10">
    <rect class="cls-9" x="3.9" y="4.47" width="17.02" height="17.04"/>
  </g>
  <path class="cls-1" d="M20.93,12.99c0,4.7-3.81,8.52-8.51,8.52S3.9,17.69,3.9,12.99,7.71,4.47,12.41,4.47s8.51,3.82,8.51,8.52Z"/>
  <g class="cls-7">
    <rect class="cls-4" x=".57" y="1.02" width="23.68" height="23.94"/>
  </g>
  <path class="cls-2" d="M7.49,9.7c2.67-2.42,3.32-6.04,2.25-8.68-2.55,2.16-3.33,5.83-2.25,8.68ZM.57,9.38c.62,3.18,3.75,6.24,6.38,6.29-.4-2.93-3.67-6.18-6.38-6.29ZM21.03,3.37c-2.6,2.12-3.34,5.97-2.27,8.63,2.61-2.17,3.35-5.97,2.27-8.63ZM6.11,12.01c1.21-2.53-.07-7.3-2.29-8.65-1.03,2.78-.3,6.43,2.29,8.65ZM24.25,9.35c-2.93.35-6.17,3.62-6.33,6.35,2.84-.3,5.92-3.37,6.33-6.35ZM17.39,9.68c1.19-2.63-.03-7.19-2.28-8.66-1.05,2.63-.38,6.39,2.28,8.66ZM9.62,18.53c-2.17-2.58-5.85-3.39-8.67-2.32,1.99,2.44,5.49,3.37,8.67,2.32ZM23.9,16.2c-2.62-1.2-7.5.13-8.62,2.35,3.18,1.03,6.67.08,8.62-2.35ZM8.82,24.96c1.75-.61,2.6-2.08,3.62-3.45.56.73,1.04,1.43,1.59,2.06.55.63,1.22,1.14,2.08,1.38.24-.58.46-1.11.65-1.57-.59-.48-1.12-.9-1.65-1.32.03-.05.06-.11.08-.16,1.86.69,3.71.69,5.65.13-1.68-1.95-4.67-3.07-7.1-2.73-.55.08-1.11.14-1.67.14-1.14,0-2.3-.18-3.41-.04-1.81.23-3.28,1.21-4.63,2.61,1.99.58,3.84.57,5.76-.02-.22.31-.49.54-.78.76q-.87.68-.44,1.68c.07.16.15.31.25.52Z"/>
  <g class="cls-8">
    <rect class="cls-6" x="44.52" y=".35" width="15.85" height="24.92"/>
  </g>
  <path class="cls-1" d="M60.38,1.82c0-.81-.66-1.47-1.46-1.47h-12.92c-.81,0-1.47.66-1.47,1.47v22.33c0,.81.66,1.47,1.47,1.47h12.92c.81,0,1.46-.65,1.46-1.47V1.82Z"/>
  <polygon class="cls-5" points="53.99 14.54 53.98 18.37 50.9 18.37 50.91 14.54 47.09 14.53 47.1 11.44 50.91 11.45 50.92 7.61 54.01 7.61 54 11.45 57.82 11.45 57.81 14.54 53.99 14.54"/>
</svg>