<?xml version="1.0" encoding="UTF-8"?>
<svg id="Layer_1" data-name="Layer 1" xmlns="http://www.w3.org/2000/svg" xmlns:xlink="http://www.w3.org/1999/xlink" viewBox="0 0 21.13 28.28">
  <defs>
    <style>
      .cls-1 {
        fill: url(#linear-gradient-2);
      }

      .cls-2 {
        fill: #fff;
      }

      .cls-3 {
        fill: none;
      }

      .cls-4 {
        fill: url(#linear-gradient-3);
      }

      .cls-5 {
        clip-path: url(#clippath-1);
      }

      .cls-6 {
        clip-path: url(#clippath-2);
      }

      .cls-7 {
        fill: url(#linear-gradient);
      }

      .cls-8 {
        clip-path: url(#clippath);
      }
    </style>
    <clipPath id="clippath">
      <path class="cls-3" d="M10.64,1.16c-.46,2-1.56,3.54-3.22,4.74-1.38,1-2.73,2.02-4.04,3.11-.95.79-1.73,2.75-2.22,3.91l18.03-2.78c-1.34-1.56-2.99-2.75-4.67-3.9-1.4-.96-2.62-2.08-3.26-3.7-.2-.49-.34-1.01-.53-1.56-.05.1-.08.14-.09.18"/>
    </clipPath>
    <linearGradient id="linear-gradient" x1="-351.87" y1="414.92" x2="-350.87" y2="414.92" gradientTransform="translate(6346.69 7489.56) scale(18.03 -18.03)" gradientUnits="userSpaceOnUse">
      <stop offset="0" stop-color="#97999c"/>
      <stop offset=".02" stop-color="#939598"/>
      <stop offset=".36" stop-color="#545557"/>
      <stop offset=".65" stop-color="#262728"/>
      <stop offset=".87" stop-color="#0a0a0a"/>
      <stop offset="1" stop-color="#000"/>
    </linearGradient>
    <clipPath id="clippath-1">
      <path class="cls-3" d="M1.16,12.91c-1.16,2.7.54,4.46,2.24,5.95l-.17.49-.34.31-.16,1.81h.62l14.59-2.56c.87-.64,1.49-1.49,1.99-2.42,1.2-2.26.92-4.41-.74-6.35L1.16,12.91Z"/>
    </clipPath>
    <linearGradient id="linear-gradient-2" x1="-351.87" y1="414.88" x2="-350.87" y2="414.88" gradientTransform="translate(7000.22 8268.59) scale(19.89 -19.89)" gradientUnits="userSpaceOnUse">
      <stop offset="0" stop-color="#e9c103"/>
      <stop offset=".5" stop-color="#c59505"/>
      <stop offset="1" stop-color="#a46e08"/>
    </linearGradient>
    <clipPath id="clippath-2">
      <polygon class="cls-3" points="3.35 21.47 4.3 27.9 8.46 27.9 8.46 22.39 12.99 22.39 12.99 27.9 17.14 27.9 18.09 21.47 18.72 21.47 18.55 19.66 18.22 19.35 17.94 18.91 3.35 21.47"/>
    </clipPath>
    <linearGradient id="linear-gradient-3" x1="-351.87" y1="414.89" x2="-350.87" y2="414.89" gradientTransform="translate(5409.44 6397.63) scale(15.36 -15.36)" gradientUnits="userSpaceOnUse">
      <stop offset="0" stop-color="#00aeef"/>
      <stop offset=".09" stop-color="#00a4e2"/>
      <stop offset=".71" stop-color="#00658e"/>
      <stop offset="1" stop-color="#004d6d"/>
    </linearGradient>
  </defs>
  <g class="cls-8">
    <rect class="cls-7" x="1.16" y=".97" width="18.03" height="11.94"/>
  </g>
  <g class="cls-5">
    <rect class="cls-1" y="10.13" width="21.13" height="11.33"/>
  </g>
  <g class="cls-6">
    <rect class="cls-4" x="3.35" y="18.91" width="15.36" height="8.99"/>
  </g>
  <path class="cls-2" d="M17.94,18.91l.22.3c.93-.68,1.59-1.58,2.1-2.55.52-.97.78-1.95.78-2.9,0-1.37-.54-2.68-1.57-3.87-1.38-1.61-3.06-2.81-4.74-3.96-1.38-.94-2.53-2.01-3.13-3.53-.19-.47-.33-.98-.52-1.55l-.29-.85-.4.8c-.04.08-.07.11-.12.27h0c-.44,1.91-1.48,3.36-3.07,4.52-1.38,1-2.74,2.03-4.06,3.12-.99.82-1.81,1.83-2.33,3.05-.29.67-.41,1.34-.41,2,0,2.21,1.38,4.18,2.75,5.38l.25-.28-.35-.12-.14.4-.27.24-.11.1-.21,2.36h.71l.95,6.44h4.85v-5.52h3.78v5.52h4.85l.95-6.44h.71l-.21-2.36-.41-.37-.25-.4-.32.2.22.3-.22-.3-.32.2.27.44.03.04.27.24.11,1.25h-.54l-.95,6.44h-3.45v-5.52h-5.28v5.52h-3.46l-.95-6.44h-.53l.11-1.25.23-.21.07-.06.2-.58.08-.24-.19-.17c-1.26-1.1-2.5-2.93-2.49-4.81,0-.56.11-1.13.35-1.7.47-1.09,1.2-2.01,2.12-2.76,1.3-1.08,2.65-2.1,4.02-3.09,1.71-1.24,2.89-2.87,3.36-4.96h0s0,0,0,0l-.18-.04.17.07v-.03s-.17-.04-.17-.04l.17.07h0s.07-.13.07-.13l-.34-.17-.35.12c.18.54.33,1.06.54,1.58.68,1.73,1.97,2.9,3.4,3.87,1.68,1.14,3.29,2.31,4.6,3.83.93,1.09,1.39,2.21,1.39,3.38,0,.82-.22,1.67-.69,2.55-.48.91-1.07,1.7-1.88,2.3l-.28.2.18.3.32-.2Z"/>
</svg>