<?xml version="1.0" encoding="UTF-8"?>
<svg id="Layer_1" data-name="Layer 1" xmlns="http://www.w3.org/2000/svg" xmlns:xlink="http://www.w3.org/1999/xlink" viewBox="0 0 21.13 28.29">
  <defs>
    <style>
      .cls-1, .cls-2 {
        fill: none;
      }

      .cls-2 {
        stroke: #fff;
        stroke-miterlimit: 10;
        stroke-width: .75px;
      }

      .cls-3 {
        fill: url(#linear-gradient);
      }

      .cls-4 {
        clip-path: url(#clippath);
      }
    </style>
    <clipPath id="clippath">
      <path class="cls-1" d="M10.63,1.17c-.46,2-1.56,3.54-3.22,4.74-1.38.99-2.73,2.03-4.04,3.11-.95.79-1.73,1.75-2.22,2.91-1.16,2.7.54,5.46,2.24,6.95l-.17.49-.34.31-.16,1.81h.62l.95,6.44h4.16v-5.51h4.53v5.51h4.16l.95-6.44h.62l-.16-1.81-.34-.31-.27-.44c.87-.64,1.49-1.49,1.99-2.43,1.2-2.26.93-4.41-.74-6.35-1.34-1.56-2.99-2.75-4.67-3.9-1.4-.96-2.62-2.07-3.26-3.7-.19-.5-.34-1.01-.53-1.56-.05.1-.08.14-.09.18"/>
    </clipPath>
    <linearGradient id="linear-gradient" x1="-241.41" y1="765.43" x2="-240.41" y2="765.43" gradientTransform="translate(4802.79 15240.08) scale(19.89 -19.89)" gradientUnits="userSpaceOnUse">
      <stop offset="0" stop-color="#da2128"/>
      <stop offset="1" stop-color="#900d10"/>
    </linearGradient>
  </defs>
  <g class="cls-4">
    <rect class="cls-3" y=".99" width="21.13" height="26.93"/>
  </g>
  <path class="cls-2" d="M17.94,18.92c.87-.64,1.49-1.49,1.99-2.43,1.2-2.26.92-4.41-.74-6.35-1.34-1.56-2.99-2.75-4.67-3.9-1.4-.96-2.62-2.08-3.26-3.7-.19-.5-.34-1.01-.53-1.56-.05.1-.08.14-.09.18-.46,2-1.56,3.54-3.22,4.74-1.38,1-2.73,2.03-4.04,3.11-.95.79-1.73,1.75-2.22,2.91C0,14.63,1.7,17.38,3.4,18.87l-.17.49-.34.31-.16,1.81h.62l.95,6.44h4.16v-5.52h4.53v5.52h4.15l.95-6.44h.62l-.16-1.81-.34-.31-.27-.44Z"/>
</svg>