<?xml version="1.0" encoding="UTF-8"?>
<svg id="Layer_1" data-name="Layer 1" xmlns="http://www.w3.org/2000/svg" xmlns:xlink="http://www.w3.org/1999/xlink" viewBox="0 0 20.64 28.3">
  <defs>
    <style>
      .cls-1, .cls-2 {
        fill: none;
      }

      .cls-2 {
        stroke: #fff;
        stroke-miterlimit: 10;
        stroke-width: .75px;
      }

      .cls-3 {
        fill: url(#linear-gradient);
      }

      .cls-4 {
        clip-path: url(#clippath);
      }
    </style>
    <clipPath id="clippath">
      <path class="cls-1" d="M1.86,17.67c.36.46.75.87,1.14,1.21l-.17.49-.34.3-.16,1.81h.62l.95,6.43h4.16v-5.51h4.53v5.51h4.16l.95-6.43h.62l-.16-1.81-.34-.3-.27-.45c.87-.64,1.49-1.49,1.99-2.43.51-.96.75-1.89.74-2.8L1.86,17.67ZM10.24,1.18c-.46,2-1.56,3.54-3.22,4.74-1.38,1-2.73,2.03-4.04,3.11-.95.79-1.73,1.75-2.22,2.91-.46,1.08-.47,2.18-.2,3.19l18.89-4.08c-.19-.3-.41-.6-.66-.9-1.34-1.56-2.99-2.75-4.67-3.9-1.4-.96-2.62-2.08-3.27-3.7-.2-.5-.34-1.01-.53-1.56-.05.1-.08.14-.09.19"/>
    </clipPath>
    <linearGradient id="linear-gradient" x1="-343.77" y1="894.72" x2="-342.77" y2="894.72" gradientTransform="translate(6838.72 17812.38) scale(19.89 -19.89)" gradientUnits="userSpaceOnUse">
      <stop offset="0" stop-color="#e9c002"/>
      <stop offset="1" stop-color="#a36e08"/>
    </linearGradient>
  </defs>
  <g class="cls-4">
    <rect class="cls-3" x=".29" y=".99" width="19.99" height="26.93"/>
  </g>
  <path class="cls-2" d="M19.45,11.05c-.19-.3-.41-.6-.66-.9-1.34-1.56-2.99-2.75-4.67-3.89-1.4-.96-2.62-2.08-3.27-3.7-.2-.5-.34-1.01-.53-1.57-.05.1-.08.14-.09.19-.46,2-1.56,3.54-3.22,4.74-1.38,1-2.73,2.03-4.04,3.11-.95.79-1.73,1.75-2.22,2.91-.46,1.08-.47,2.17-.2,3.19l18.89-4.08ZM1.86,17.67c.35.46.74.87,1.14,1.21l-.17.49-.34.31-.16,1.81h.62l.95,6.44h4.16v-5.52h4.53v5.52h4.16l.95-6.44h.62l-.16-1.81-.34-.31-.27-.44c.87-.64,1.49-1.49,1.99-2.43.51-.96.75-1.89.74-2.8L1.86,17.67Z"/>
</svg>