<?xml version="1.0" encoding="UTF-8"?>
<svg id="Layer_1" data-name="Layer 1" xmlns="http://www.w3.org/2000/svg" xmlns:xlink="http://www.w3.org/1999/xlink" viewBox="0 0 30.56 34.41">
  <defs>
    <style>
      .cls-1 {
        fill: url(#linear-gradient-2);
      }

      .cls-2 {
        fill: #fff;
      }

      .cls-3 {
        stroke-width: .5px;
      }

      .cls-3, .cls-4, .cls-5 {
        fill: none;
      }

      .cls-3, .cls-5 {
        stroke: #fff;
        stroke-miterlimit: 10;
      }

      .cls-6 {
        fill: url(#linear-gradient-4);
      }

      .cls-5 {
        stroke-width: .75px;
      }

      .cls-7 {
        fill: url(#linear-gradient-3);
      }

      .cls-8 {
        clip-path: url(#clippath-1);
      }

      .cls-9 {
        clip-path: url(#clippath-3);
      }

      .cls-10 {
        clip-path: url(#clippath-2);
      }

      .cls-11 {
        fill: url(#linear-gradient);
      }

      .cls-12 {
        clip-path: url(#clippath);
      }
    </style>
    <clipPath id="clippath">
      <polygon class="cls-4" points="16.46 17.06 19.08 14.44 5.01 7.04 16.46 17.06"/>
    </clipPath>
    <linearGradient id="linear-gradient" x1="-334.26" y1="851.77" x2="-333.26" y2="851.77" gradientTransform="translate(1586.88 4028.72) scale(4.72 -4.72)" gradientUnits="userSpaceOnUse">
      <stop offset="0" stop-color="#da2128"/>
      <stop offset="1" stop-color="#900d10"/>
    </linearGradient>
    <clipPath id="clippath-1">
      <polygon class="cls-4" points="9.77 16.67 12.39 14.05 6 10.28 9.77 16.67"/>
    </clipPath>
    <linearGradient id="linear-gradient-2" x1="-334.26" y1="851.71" x2="-333.26" y2="851.71" gradientTransform="translate(1246.33 3170.55) scale(3.71 -3.71)" gradientUnits="userSpaceOnUse">
      <stop offset="0" stop-color="#fd0"/>
      <stop offset="1" stop-color="#cf9810"/>
    </linearGradient>
    <clipPath id="clippath-2">
      <polygon class="cls-4" points="17.87 15.64 19.79 13.73 8.55 7.74 17.87 15.64"/>
    </clipPath>
    <linearGradient id="linear-gradient-3" x1="-334.26" y1="851.78" x2="-333.26" y2="851.78" gradientTransform="translate(1255.91 3179.02) scale(3.72 -3.72)" gradientUnits="userSpaceOnUse">
      <stop offset="0" stop-color="#fd0"/>
      <stop offset="1" stop-color="#cf9810"/>
    </linearGradient>
    <clipPath id="clippath-3">
      <path class="cls-4" d="M14.77,12.07c-.32.04-.18.44-.79.66-.32.12-.49,0-.61-.11-.11-.09-.18-.19-.29-.15-.66.23-1.31.56-1.92.99-.65.45-1.21.99-1.69,1.58-.23.29.67.51.22,1.24-.42.67-1.26.45-1.41.86-.36.93-.54,1.93-.54,2.93,0,.36.32.6.37.96.04.28-.19.68-.12.96.23.91.63,1.8,1.2,2.61.5.71,1.09,1.32,1.74,1.81.05.04.14-.07.26-.17.18-.17.43-.33.63.08.11.21-.1.63.11.74,2.58,1.39,5.83,1.32,8.39-.47,3.63-2.53,4.52-7.52,1.99-11.15-.7-1-1.57-1.78-2.56-2.35-.11-.06-.27-.02-.43.03-.15.04-.3.09-.41.04-.23-.1-.28-.6-.51-.68-.85-.3-1.75-.45-2.65-.45-.32,0-.64.02-.96.06"/>
    </clipPath>
    <linearGradient id="linear-gradient-4" x1="-334.26" y1="851.94" x2="-333.26" y2="851.94" gradientTransform="translate(5358.66 13658.06) scale(16.01 -16.01)" gradientUnits="userSpaceOnUse">
      <stop offset="0" stop-color="#e4a641"/>
      <stop offset="1" stop-color="#bb5218"/>
    </linearGradient>
  </defs>
  <polygon class="cls-3" points="12.78 20.74 2.75 9.29 10.16 23.36 12.78 20.74"/>
  <g class="cls-12">
    <rect class="cls-11" x="3.53" y="3.53" width="17.03" height="17.03" transform="translate(-4.99 12.05) rotate(-45)"/>
  </g>
  <polygon class="cls-3" points="16.46 17.06 5.01 7.03 19.08 14.44 16.46 17.06"/>
  <g class="cls-8">
    <rect class="cls-1" x="4.68" y="8.96" width="9.04" height="9.04" transform="translate(-6.84 10.45) rotate(-45)"/>
  </g>
  <polygon class="cls-3" points="9.77 16.67 6 10.28 12.39 14.05 9.77 16.67"/>
  <polygon class="cls-3" points="11.37 22.15 3.46 12.83 9.45 24.06 11.37 22.15"/>
  <g class="cls-10">
    <rect class="cls-7" x="7.4" y="4.92" width="13.54" height="13.54" transform="translate(-4.12 13.44) rotate(-45)"/>
  </g>
  <polygon class="cls-3" points="17.87 15.64 8.55 7.74 19.79 13.73 17.87 15.64"/>
  <g class="cls-9">
    <rect class="cls-6" x="5.26" y="9.4" width="22.03" height="21.66" transform="translate(-6.42 7.62) rotate(-22.13)"/>
  </g>
  <g>
    <path class="cls-5" d="M22.3,15.43c2.53,3.62,1.64,8.62-1.99,11.15-2.57,1.79-5.82,1.87-8.39.47-.21-.11,0-.53-.11-.74-.33-.67-.76.19-.89.09-.66-.49-1.25-1.1-1.74-1.81-.57-.82-.97-1.7-1.2-2.61-.07-.28.16-.68.12-.96-.05-.36-.37-.6-.37-.96,0-1,.18-2,.54-2.93.16-.4,1-.19,1.41-.86.45-.73-.45-.94-.22-1.24.47-.59,1.03-1.13,1.69-1.58.61-.42,1.25-.75,1.92-.99.24-.09.32.47.91.26.61-.22.47-.62.79-.66,1.22-.15,2.46-.01,3.61.39.23.08.28.58.51.68.23.1.63-.19.84-.07.99.57,1.87,1.36,2.56,2.35Z"/>
    <path class="cls-2" d="M20.32,21.99c.72,1.03.47,2.45-.56,3.17-1.03.72-2.45.47-3.17-.57-.72-1.03-.47-2.45.56-3.17,1.03-.72,2.45-.47,3.17.56"/>
    <path class="cls-2" d="M19.83,19.91c.14.21.09.49-.11.63-.21.14-.49.09-.63-.11-.14-.21-.09-.49.11-.63.2-.14.49-.09.63.11"/>
    <path class="cls-2" d="M21.95,22.32c.14.21.09.49-.11.63-.21.14-.49.09-.63-.11-.14-.21-.09-.49.11-.63.2-.14.49-.09.63.11"/>
    <path class="cls-2" d="M16.53,25.46c.23.32.15.77-.18,1-.33.23-.77.15-1-.18-.23-.33-.15-.77.18-1,.33-.23.77-.15,1,.18"/>
    <path class="cls-2" d="M22.29,18.02c.22.32.15.77-.18.99-.32.23-.77.15-.99-.18-.22-.32-.15-.77.18-.99.32-.22.76-.14.99.18"/>
    <path class="cls-2" d="M14.48,25.67c.15.22.1.53-.12.69-.22.15-.53.1-.69-.12-.15-.22-.1-.53.12-.69.22-.16.53-.1.69.12"/>
    <path class="cls-2" d="M15.73,23.86c.15.22.1.53-.12.69-.22.15-.53.1-.69-.12-.15-.22-.1-.53.12-.69.22-.15.53-.1.69.12"/>
    <path class="cls-2" d="M22.37,20.01c.32.46.21,1.08-.25,1.4-.46.32-1.09.21-1.4-.25-.32-.46-.21-1.09.25-1.4.45-.32,1.08-.21,1.4.25"/>
  </g>
</svg>