<?xml version="1.0" encoding="UTF-8"?>
<svg id="Layer_1" data-name="Layer 1" xmlns="http://www.w3.org/2000/svg" xmlns:xlink="http://www.w3.org/1999/xlink" viewBox="0 0 35.35 40.92">
  <defs>
    <style>
      .cls-1 {
        clip-path: url(#clippath-6);
      }

      .cls-2 {
        clip-path: url(#clippath-4);
      }

      .cls-3 {
        fill: url(#linear-gradient-2);
      }

      .cls-4 {
        fill: #fff;
      }

      .cls-5 {
        fill: none;
      }

      .cls-6 {
        fill: url(#linear-gradient-4);
      }

      .cls-7 {
        fill: url(#linear-gradient-3);
      }

      .cls-8 {
        clip-path: url(#clippath-1);
      }

      .cls-9 {
        fill: url(#linear-gradient-5);
      }

      .cls-10 {
        clip-path: url(#clippath-5);
      }

      .cls-11 {
        clip-path: url(#clippath-3);
      }

      .cls-12 {
        fill: #2c973e;
      }

      .cls-13 {
        fill: url(#linear-gradient-7);
      }

      .cls-14 {
        fill: url(#linear-gradient-6);
      }

      .cls-15 {
        clip-path: url(#clippath-2);
      }

      .cls-16 {
        fill: url(#linear-gradient);
      }

      .cls-17 {
        clip-path: url(#clippath);
      }
    </style>
    <clipPath id="clippath">
      <path class="cls-5" d="M21.74,23.96l-6.55,2.44c1.19,2.2.05,8.9.05,8.9l-.19.69,6.98-6.16s.34-2.87-.11-5.12c-.05-.26-.11-.52-.19-.76ZM21.74,23.96s0,0,0,0c0,0,0,0,0,0M21.74,23.96c-.11-.35-.24-.67-.41-.95.16.27.39.88.41.95M21.32,23.01s0,0,0,0c0,0,0,0,0,0M21.28,13.54s0,0,0-.01c0,0,0,0,0,.01M21.19,13.32s0,0,0,0c0,0,0,0,0,0M21.17,13.27s-.02-.05-.03-.07c.01.02.02.05.03.07M21.14,13.18s0-.01,0-.02c0,0,0,.01,0,.02M21.13,13.16s-.02-.04-.03-.07c0,.02.02.04.03.07M21.1,13.08s0,0,0,0c0,0,0,0,0,0M21.09,13.06s-.02-.06-.04-.09c.01.03.02.06.04.09M21.04,12.92s0,0,0,0c0,0,0,0,0,0M21.03,12.9s0,0,0-.01c0,0,0,0,0,.01M21.01,12.86c-.02-.06-.04-.12-.07-.18.02.06.05.12.07.18M20.94,12.67s0-.02-.01-.03c0,0,0,.02.01.03M20.93,12.64s0-.02-.01-.03c0,.01,0,.02.01.03M17.88,7.55s0,0,0,0c0,0,0,0,0,0M17.9,7.54s0,0,0,0c0,0,0,0,0,0M17.91,7.53h0,0M19.21,7.43s-.01-.01-.02-.02c0,0,.01.01.02.02M19.19,7.41s0,0,0,0c0,0,0,0,0,0M18.61,7.13h0,0ZM19.18,7.39c-.22-.19-.4-.26-.55-.26.16,0,.34.07.55.26"/>
    </clipPath>
    <linearGradient id="linear-gradient" x1="-516.74" y1="485.2" x2="-515.74" y2="485.2" gradientTransform="translate(-11593.91 12375.48) rotate(90) scale(23.93 -23.93)" gradientUnits="userSpaceOnUse">
      <stop offset="0" stop-color="#00aeef"/>
      <stop offset=".09" stop-color="#00a4e2"/>
      <stop offset=".71" stop-color="#00658e"/>
      <stop offset="1" stop-color="#004d6d"/>
    </linearGradient>
    <clipPath id="clippath-1">
      <path class="cls-5" d="M15.05,18.47s0,0,0,0c-.36.32.25.71.25.71l-.7.75.1.66c2.49,2.65,1.38,4.12,1.38,4.12l-.95,1.58s.04.07.06.1l6.55-2.44s-.25-.68-.42-.96c0,0,0,0,0,0l1.36-1.2s.42-1.11-1.52-3.39c-.15-.17-.31-.35-.48-.54l.05-.73-5.67,1.34ZM20.72,17.13l.76-.8-.76.8Z"/>
    </clipPath>
    <linearGradient id="linear-gradient-2" x1="-516.74" y1="485.64" x2="-515.74" y2="485.64" gradientTransform="translate(-8366.96 8930.74) rotate(90) scale(17.27 -17.27)" gradientUnits="userSpaceOnUse">
      <stop offset="0" stop-color="#fd0"/>
      <stop offset=".45" stop-color="#e8bc07"/>
      <stop offset="1" stop-color="#d09910"/>
    </linearGradient>
    <clipPath id="clippath-2">
      <path class="cls-5" d="M6.05,20.59s0,0,0,0c0,0,0,0,0,0ZM7.23,15.96l.06.3c-.08-.51-.15-1.08-.18-1.6-.03.4,0,.84.12,1.3M8.12,12.24c.06-.08.12-.15.17-.2-.04.05-.1.12-.17.2M18.61,7.13h0c-.28,0-.49.22-.7.4h0s0,0,0,0c0,0,0,0,0,0,0,0,0,0,0,0,0,0,0,0,0,0-.36.28-2.63.54-3.79.92l-5.54,3.37c1.11-.33,3.09-.57,3.41-.82.21-.17.41-.39.68-.39.16,0,.34.07.56.27.42.37.34,1.82.77,2.73.58,1.22.23.57.81,2.09.52,1.37.58,1.44.59,1.44,0,0,0,0,0,0,0,0,.34.72-.32,1.31l5.67-1.34.76-.8s-.66-.42-.27-.77c.72-.64.35-1.41.35-1.41h0s-.04-.04-.28-.61c0,0,0,0,0-.01-.02-.06-.05-.14-.08-.21,0,0,0,0,0,0,0-.01-.01-.03-.02-.04-.01-.02-.02-.05-.03-.07,0,0,0,0,0,0,0,0,0-.01,0-.02,0,0,0,0,0,0,0-.02-.02-.04-.03-.07,0,0,0-.01,0-.02,0,0,0,0,0,0,0,0,0-.01,0-.02-.01-.03-.02-.06-.04-.09,0-.02-.01-.03-.02-.05,0,0,0,0,0,0,0,0,0-.01,0-.02,0,0,0,0,0-.01,0,0,0-.02-.01-.03-.02-.06-.04-.12-.07-.18,0,0,0,0,0-.01,0-.01,0-.02-.01-.03h0s0-.02-.01-.04c-.62-1.64-.26-.94-.88-2.25-.46-.97-.38-2.53-.83-2.93,0,0-.01-.01-.02-.02h0s0,0,0,0c0,0,0,0,0,0-.22-.19-.4-.26-.55-.26h0"/>
    </clipPath>
    <linearGradient id="linear-gradient-3" x1="-516.74" y1="485.69" x2="-515.74" y2="485.69" gradientTransform="translate(-5298.31 5661.15) rotate(90) scale(10.94 -10.94)" gradientUnits="userSpaceOnUse">
      <stop offset="0" stop-color="#72bf44"/>
      <stop offset=".27" stop-color="#4ca03f"/>
      <stop offset=".78" stop-color="#0a6b37"/>
      <stop offset="1" stop-color="#0a6b37"/>
    </linearGradient>
    <clipPath id="clippath-3">
      <path class="cls-5" d="M7.79,19.12c0,.37.18.93.39,1.46-.04-.1-.43-1.25-.38-1.6,0,.04,0,.09,0,.13"/>
    </clipPath>
    <linearGradient id="linear-gradient-4" x1="-516.74" y1="484.77" x2="-515.74" y2="484.77" gradientTransform="translate(-8362.81 8937.37) rotate(90) scale(17.27 -17.27)" gradientUnits="userSpaceOnUse">
      <stop offset="0" stop-color="#ffeb8c"/>
      <stop offset="1" stop-color="#e5c17a"/>
    </linearGradient>
    <clipPath id="clippath-4">
      <path class="cls-5" d="M6.55,29.62l-1.12-.84,3.48,2.61,6.14,4.61.19-.69s1.13-6.7-.05-8.9l-8.64,3.22Z"/>
    </clipPath>
    <linearGradient id="linear-gradient-5" x1="-516.74" y1="484.89" x2="-515.74" y2="484.89" gradientTransform="translate(-11594.34 12381.07) rotate(90) scale(23.93 -23.93)" gradientUnits="userSpaceOnUse">
      <stop offset="0" stop-color="#5bcbf5"/>
      <stop offset=".41" stop-color="#4eb0d4"/>
      <stop offset="1" stop-color="#3d8daa"/>
    </linearGradient>
    <clipPath id="clippath-5">
      <path class="cls-5" d="M6.05,20.6c.31.79.7,1.52.7,1.52-.01.02-.52.74-.9,2.44-.23,1.01-.41,2.35-.42,4.09v.13l1.12.84,8.64-3.22s-.04-.07-.06-.1l.95-1.58s1.11-1.48-1.38-4.12l-.1-.66.7-.75s-.61-.39-.25-.71c0,0,0,0,0,0l-9,2.12Z"/>
    </clipPath>
    <linearGradient id="linear-gradient-6" x1="-516.74" y1="485.19" x2="-515.74" y2="485.19" gradientTransform="translate(-8366.68 8935.16) rotate(90) scale(17.27 -17.27)" gradientUnits="userSpaceOnUse">
      <stop offset="0" stop-color="#ffeb8c"/>
      <stop offset="1" stop-color="#e5c17a"/>
    </linearGradient>
    <clipPath id="clippath-6">
      <path class="cls-5" d="M11.96,11.02c-.32.25-2.3.49-3.41.82l-.19.11s-.03.03-.08.08c-.05.05-.11.12-.17.2-.34.42-.91,1.3-1.01,2.42.04.52.11,1.09.18,1.6l.3,1.41s-.1.03-.25.08c-.5.17-1.58.6-1.67,1.24-.05.35.34,1.5.38,1.6,0,0,0,0,0,0l9-2.12c.66-.59.32-1.31.32-1.31,0,0,0,0,0,0,0,0-.07-.07-.59-1.44-.58-1.52-.24-.88-.81-2.09-.43-.91-.35-2.35-.77-2.73-.22-.2-.4-.27-.56-.27-.27,0-.47.22-.68.39"/>
    </clipPath>
    <linearGradient id="linear-gradient-7" x1="-516.74" y1="485.35" x2="-515.74" y2="485.35" gradientTransform="translate(-5297.89 5663.18) rotate(90) scale(10.94 -10.94)" gradientUnits="userSpaceOnUse">
      <stop offset="0" stop-color="#b1d793"/>
      <stop offset=".07" stop-color="#abd090"/>
      <stop offset=".54" stop-color="#88a97f"/>
      <stop offset=".78" stop-color="#7b9a79"/>
      <stop offset="1" stop-color="#7b9a79"/>
    </linearGradient>
  </defs>
  <g class="cls-17">
    <rect class="cls-16" x="7.97" y="7.39" width="21.5" height="28.36" transform="translate(-8.58 13.2) rotate(-32)"/>
  </g>
  <g class="cls-8">
    <rect class="cls-3" x="12.58" y="14.85" width="12.54" height="13.04" transform="translate(-8.46 13.23) rotate(-32)"/>
  </g>
  <g class="cls-15">
    <rect class="cls-7" x="3.69" y="3.95" width="20.6" height="19.83" transform="translate(-5.22 9.52) rotate(-32)"/>
  </g>
  <path class="cls-4" d="M10.68,11.84s-.08.02-.12.04c0,0-.06.06-.15.16.05-.05.08-.08.08-.08l.19-.11ZM10.25,12.24c-.41.51-1.07,1.46-1.01,2.37,0,.02,0,.03,0,.05.09-1.12.67-1.99,1.01-2.42M9.42,16.26c.11.77.23,1.37.23,1.37l-.19.11c-.5.17-1.58.6-1.67,1.25,0,.04,0,.08,0,.13,0-.05,0-.09,0-.13.09-.64,1.17-1.08,1.67-1.25.15-.05.25-.08.25-.08l-.3-1.41Z"/>
  <g class="cls-11">
    <rect class="cls-6" x="7.35" y="19" width="1.21" height="1.58" transform="translate(-9.28 7.23) rotate(-32)"/>
  </g>
  <path class="cls-4" d="M6.75,22.12,6.75,22.12s-1.3,1.85-1.32,6.53c0-1.74.19-3.09.42-4.09.38-1.7.89-2.42.9-2.44M5.43,28.65v.02-.02M5.43,28.68v.02-.02M5.43,28.72h0s0,0,0,0M5.43,28.74h0s0,0,0,0M5.43,28.78l9.63,7.22-6.15-4.61-3.48-2.61Z"/>
  <g class="cls-2">
    <rect class="cls-9" x="3.72" y="24.23" width="14.37" height="13.94" transform="translate(-14.88 10.52) rotate(-32)"/>
  </g>
  <g class="cls-10">
    <rect class="cls-14" x="3.37" y="16.2" width="15.88" height="15.68" transform="translate(-11.02 9.65) rotate(-32)"/>
  </g>
  <g class="cls-1">
    <rect class="cls-13" x="3.75" y="8.71" width="13.84" height="13.8" transform="translate(-6.65 8.03) rotate(-32)"/>
  </g>
  <g>
    <path class="cls-4" d="M20.67,17.87l-.27.26c1.75,1.87,1.94,2.98,1.94,3.37v.16s-.02.02-.02.02l.14.04-.13-.05h0s.14.05.14.05l-.13-.05.35.13-.25-.28-1.6,1.41.17.27c.61.98.8,2.82.79,4.3,0,.65-.03,1.23-.06,1.64-.03.41-.06.66-.06.66l.37.04-.25-.28-6.75,5.95-9.39-7.04-.22.3h.38c0-2.37.33-4,.64-5.02.16-.51.32-.88.43-1.1.06-.11.1-.2.14-.25l.03-.05h0s-.03-.03-.03-.03l.03.02h0l-.03-.02.03.02.13-.19-.11-.2s-.07-.12-.17-.33c-.15-.31-.38-.79-.56-1.27-.19-.48-.33-.98-.32-1.22v-.08s0,0,0,0c0-.06.05-.15.14-.24.26-.3.93-.59,1.28-.7h0c.15-.05.24-.07.24-.07l.34-.1-.43-2.05h0c-.09-.32-.12-.62-.12-.9,0-.8.29-1.49.58-1.98.15-.25.29-.44.4-.57l.13-.15.03-.04h0s-.26-.28-.26-.28l.2.32,5.73-3.48-.19-.32.12.36c.53-.18,1.39-.34,2.15-.49.38-.08.74-.15,1.03-.22.15-.04.28-.07.4-.11.12-.04.22-.08.32-.16h0c.13-.11.23-.2.32-.26l.18-.07s.15.02.35.2h0s0,0,0,0c.02.01.09.12.14.32.08.28.14.7.22,1.15.08.45.18.92.38,1.34.31.66.36.79.42.96.06.18.13.45.45,1.27.28.74.44,1.13.53,1.34.05.11.08.17.1.22l.05.08.07.07s.1.08.24.08c.13,0,.25-.08.29-.14l.07-.13-.36-.11-.34.16.09-.04-.09.04h0s.09-.04.09-.04l-.09.04s.06.15.06.32c0,.19-.05.41-.32.65-.15.13-.25.33-.25.52.01.32.19.5.31.63.13.13.24.2.26.21l.2-.32-.27-.26-.85.9-.06.87v.16s.1.12.1.12l.27-.26.37.02.04-.6.97-1.03-.38-.24h0s-.15-.14-.15-.14l-.06-.08h0s-.05,0-.05,0h.05,0s-.05,0-.05,0h.05-.09l.09.04v-.04s-.09,0-.09,0l.09.04-.03-.02.03.02h0s-.03-.02-.03-.02l.03.02h0c.44-.39.58-.87.57-1.22,0-.36-.12-.61-.13-.64l-.42-.88-.28.93.36.11-.29-.24-.07.13.36.11-.29-.24.29.24v-.37c-.13,0-.25.08-.29.14l.29.24v-.37.37l.23-.29s-.09-.08-.23-.08v.37l.23-.29-.2.25.27-.17-.07-.08-.2.25.27-.17-.06.04.07-.04h0s-.06.04-.06.04l.07-.04s-.17-.34-.59-1.46c-.31-.82-.37-1.03-.43-1.23-.07-.22-.15-.39-.45-1.05-.2-.41-.3-1.02-.39-1.58-.05-.28-.09-.55-.17-.8-.07-.24-.16-.48-.36-.67h0s0,0,0,0c-.27-.25-.56-.39-.85-.39-.25,0-.46.1-.6.21-.15.11-.27.21-.36.29h0s.04.05.04.05l-.04-.06h0s.04.06.04.06l-.04-.06s-.21.09-.48.15c-.82.2-2.29.41-3.2.71h-.04s-5.8,3.54-5.8,3.54l-.03.03s-1.37,1.32-1.38,3.29c0,.35.04.71.15,1.09l.36-.1-.37.08.36,1.7.37-.08-.1-.36s-.11.03-.27.08h0s0,0,0,0c-.27.09-.68.25-1.07.48-.19.12-.38.26-.53.43-.16.17-.29.38-.32.64h0s-.01.18-.01.18c0,.3.08.63.19.97.32,1.02.94,2.19.95,2.2l.33-.17-.3-.22c-.05.06-1.39,1.99-1.39,6.88v.19l10.02,7.52,7.32-6.45.02-.14s.12-1.05.12-2.39c0-1.54-.14-3.44-.9-4.69l-.32.2.25.28,1.43-1.26.03-.09s.06-.18.06-.43c0-.65-.31-1.94-2.15-3.89l-.27.26.37.02-.37-.02Z"/>
    <path class="cls-12" d="M26.12,31.37c.37-.37.54-.81.22-1.29-.26-.39-.81-.66-1.26-.47-.21.09-.39.27-.56.44-.91.9-1.31,1.3-2.21,2.21l-.09-.02c.11-.23.18-.5.35-.67,1.17-1.2,1.88-1.88,3.06-3.08.52-.52.56-1.09.14-1.54-.45-.49-1.19-.54-1.76.02-.98.95-1.43,1.42-2.4,2.38-.11.11-.21.26-.35.33-.13.07-.16.12-.32.15.05-.13.05-.3.14-.39,1.11-1.12,1.73-1.74,2.85-2.86.74-.74.75-1.47.22-1.97-.5-.48-1.04-.36-1.79.39-1.19,1.19-1.88,1.89-3.08,3.06-.16.15-.32.31-.54.41l-.13-.2c.13-.15.26-.32.41-.46,1-1.01,1.52-1.51,2.52-2.52.55-.55.61-1.13.18-1.57-.44-.46-1.01-.45-1.58.11-1.37,1.34-1.72,1.73-3.08,3.09-.08.08-1.15,1.14-1.35,1.35.12-.6.23-1.02.3-1.44.16-.95-.22-1.8-.96-2.22-.71-.4-1.17-.17-1.18.64l-.47,3.12c-.33,1.02-.08,2.33-.14,3.39-.06,1.1-.37,1.96-1.25,2.61-.39.29-.32.55,0,.87,1.01.98,1.99,1.98,2.98,2.97,1.03,1.04,1.04,1.05,2.06,0,.3-.31.58-.45,1.03-.36.88.16,1.67-.13,2.3-.73l5.73-5.71Z"/>
    <path class="cls-4" d="M26.12,31.37l.27.26c.27-.27.5-.62.5-1.05,0-.24-.08-.49-.23-.72h0s0,0,0,0c-.27-.4-.73-.7-1.26-.7-.15,0-.31.03-.46.09h0c-.31.14-.51.36-.67.52-.91.9-1.31,1.31-2.22,2.21l.27.27.1-.36-.09-.02-.1.36.33.17c.13-.28.21-.51.28-.57h0c1.17-1.2,1.87-1.88,3.05-3.08.33-.33.53-.72.53-1.14,0-.34-.14-.66-.38-.92-.3-.32-.7-.51-1.13-.51-.41,0-.83.17-1.17.51h0c-.98.95-1.44,1.43-2.4,2.39h0c-.15.15-.24.26-.26.26l.18.33-.17-.33c-.09.05-.15.09-.17.1h-.04s.06.38.06.38l.35.12c.04-.11.05-.19.06-.24v-.04s-.08-.04-.08-.04l.07.07.02-.03-.1-.04.07.07h0c1.11-1.13,1.73-1.74,2.85-2.86.45-.45.7-.94.7-1.43,0-.41-.18-.79-.48-1.07-.24-.23-.55-.39-.88-.39-.51,0-.95.31-1.43.79-1.19,1.19-1.87,1.89-3.07,3.06-.15.15-.29.27-.43.33l.15.34.32-.2-.13-.2-.32.2.28.25c.15-.16.27-.32.39-.44h0c1-1.01,1.51-1.51,2.52-2.52.35-.35.57-.76.57-1.19,0-.34-.15-.66-.39-.91-.26-.27-.6-.45-.97-.44-.41,0-.8.2-1.14.54-1.38,1.35-1.73,1.74-3.08,3.09l.27.26-.26-.27c-.09.08-1.15,1.15-1.35,1.35l.27.27.37.08c.12-.59.22-1.01.3-1.46h0c.03-.17.04-.33.04-.49,0-.89-.43-1.7-1.18-2.12-.27-.15-.52-.24-.79-.24-.28,0-.57.13-.73.37-.16.23-.22.51-.23.83h.38s-.37-.05-.37-.05l-.47,3.12.37.06-.36-.11c-.16.48-.19,1-.19,1.5,0,.56.05,1.12.05,1.61,0,.13,0,.25-.01.37-.03.52-.12.96-.29,1.34-.17.38-.42.69-.81.99-.12.09-.22.18-.29.3-.08.12-.13.26-.12.4,0,.16.05.3.13.42.07.12.16.22.26.32,1,.97,1.98,1.97,2.97,2.96.26.26.46.46.65.61.19.15.39.28.66.28.26,0,.47-.13.65-.28.19-.15.38-.35.64-.61.22-.22.32-.27.52-.27l.18.02c.19.04.37.05.55.05.79,0,1.51-.33,2.08-.88h0s5.73-5.72,5.73-5.72h0s-.27-.26-.27-.26l-.27-.27-5.72,5.71.26.27-.26-.27c-.46.44-.98.67-1.56.67-.13,0-.27-.01-.41-.04-.11-.02-.21-.03-.32-.03-.43,0-.79.22-1.05.5-.25.26-.44.45-.57.56l-.15.1h-.04s-.04,0-.04,0c-.1-.04-.35-.27-.74-.66-.99-.99-1.97-1.99-2.98-2.97l-.14-.17-.02-.04h0s0,0,0,0h0s0,0,0,0h0-.04.04s0,0,0,0h-.04.04s.02-.01.02-.01l.1-.09c.49-.36.84-.79,1.05-1.28.22-.49.32-1.02.35-1.6,0-.13.01-.27.01-.41,0-.54-.05-1.09-.05-1.61,0-.47.04-.91.16-1.27v-.03s.49-3.18.49-3.18v-.03c0-.23.05-.36.09-.41l.12-.05c.08,0,.23.04.42.15.5.28.8.81.8,1.46,0,.12-.01.24-.03.36h0c-.07.41-.17.82-.3,1.43l-.26,1.23.89-.89c.2-.2,1.27-1.27,1.35-1.34h0s0,0,0,0c1.36-1.36,1.71-1.75,3.07-3.08.26-.25.47-.33.62-.33.14,0,.27.05.43.21.14.14.18.26.18.39,0,.16-.09.39-.35.66-1,1.01-1.52,1.51-2.52,2.52-.17.17-.3.34-.42.48l-.18.21.27.44.17.28.3-.13c.29-.13.48-.33.64-.48,1.21-1.18,1.9-1.88,3.08-3.06.43-.43.74-.57.9-.57.11,0,.21.04.37.18.18.17.25.34.25.53,0,.23-.12.54-.48.9-1.11,1.12-1.74,1.74-2.85,2.86h0c-.13.13-.16.26-.18.35-.02.09-.04.16-.05.18l-.21.59.62-.1c.12-.02.23-.06.3-.1l.13-.08h0c.25-.14.36-.32.44-.39h0c.96-.97,1.42-1.44,2.39-2.38h0c.22-.21.44-.29.65-.29.21,0,.41.09.58.26.14.15.18.28.18.41,0,.16-.08.37-.32.61-1.18,1.19-1.88,1.87-3.06,3.08h0c-.27.28-.32.59-.42.76l-.21.41.53.14.21.06.15-.15c.9-.9,1.31-1.31,2.21-2.21.17-.17.33-.32.44-.36h0s.17-.03.17-.03c.21,0,.51.16.64.37h0c.08.13.11.22.11.3,0,.14-.08.32-.28.52h0s.27.26.27.26Z"/>
  </g>
</svg>