<?xml version="1.0" encoding="UTF-8"?>
<svg id="Layer_1" data-name="Layer 1" xmlns="http://www.w3.org/2000/svg" xmlns:xlink="http://www.w3.org/1999/xlink" viewBox="0 0 26.12 23.66">
  <defs>
    <style>
      .cls-1 {
        fill: url(#linear-gradient-2);
      }

      .cls-2, .cls-3 {
        fill: none;
      }

      .cls-3 {
        stroke: #fff;
        stroke-miterlimit: 10;
        stroke-width: .75px;
      }

      .cls-4 {
        clip-path: url(#clippath-1);
      }

      .cls-5 {
        fill: url(#linear-gradient);
      }

      .cls-6 {
        clip-path: url(#clippath);
      }
    </style>
    <clipPath id="clippath">
      <polygon class="cls-2" points="5.42 7.07 5.42 9.51 6.96 9.51 6.96 11.95 5.18 11.95 .48 20.72 3.98 23.28 17.11 23.28 20.61 20.72 15.91 11.95 14.13 11.95 14.13 9.51 15.67 9.51 15.67 7.07 5.42 7.07"/>
    </clipPath>
    <linearGradient id="linear-gradient" x1="-21.2" y1="803.93" x2="-20.2" y2="803.93" gradientTransform="translate(427.02 16191.09) scale(20.12 -20.12)" gradientUnits="userSpaceOnUse">
      <stop offset="0" stop-color="#808184"/>
      <stop offset="1" stop-color="#060000"/>
    </linearGradient>
    <clipPath id="clippath-1">
      <path class="cls-2" d="M16.74,5.17c-2.65,1.98-4.93,4.33-6.84,7.03-1.91,2.7-3.37,5.61-4.43,8.8.84-.48,1.6-.93,2.39-1.35.27-.15.46-.32.5-.65.02-.2.11-.41.18-.61.44-1.34,1.03-2.61,2.03-3.63.18-.18.44-.32.68-.4.49-.15,1-.07,1.49.02.85.14,1.69.32,2.55.42.69.08,1.37.01,1.86-.57.53-.63,1.06-1.28,1.58-1.92.01-.01,0-.04,0-.07-1.11-.26-2.17-.6-3.06-1.44.23-.01.39-.01.55-.03,1.41-.13,2.76-.52,4.09-.98.07-.02.15-.06.18-.11.17-.25.33-.51.5-.78-.79-.29-1.56-.59-2.18-1.23,1.1-.04,2.12-.25,3.12-.54.07-.02.16-.04.19-.09.28-.45.54-.9.82-1.36-.71-.29-1.39-.57-1.87-1.08.86-.16,1.73-.31,2.58-.48.12-.02.26-.14.32-.25.38-.73.74-1.47,1.08-2.21.15-.33.26-.67.41-1.07-3.2,1.08-6.1,2.58-8.76,4.57"/>
    </clipPath>
    <linearGradient id="linear-gradient-2" x1="-21.2" y1="803.93" x2="-20.2" y2="803.93" gradientTransform="translate(429.97 16109.78) scale(20.03 -20.03)" gradientUnits="userSpaceOnUse">
      <stop offset="0" stop-color="#674026"/>
      <stop offset="1" stop-color="#d5a65c"/>
    </linearGradient>
  </defs>
  <g class="cls-6">
    <rect class="cls-5" x=".48" y="7.07" width="20.12" height="16.21"/>
  </g>
  <polygon class="cls-3" points="15.67 7.07 15.67 9.51 14.13 9.51 14.13 11.95 15.91 11.95 20.61 20.72 17.11 23.28 3.98 23.28 .48 20.72 5.18 11.95 6.96 11.95 6.96 9.51 5.42 9.51 5.42 7.07 15.67 7.07"/>
  <g class="cls-4">
    <rect class="cls-1" x="5.47" y=".61" width="20.03" height="20.4"/>
  </g>
  <path class="cls-3" d="M25.49.61c-.15.4-.26.74-.41,1.07-.34.74-.71,1.48-1.08,2.21-.06.11-.2.23-.32.25-.86.17-1.72.32-2.58.48.48.51,1.16.79,1.87,1.08-.28.46-.54.91-.83,1.36-.03.05-.12.07-.19.09-1,.29-2.02.5-3.12.54.62.64,1.39.94,2.18,1.23-.17.27-.33.53-.5.79-.03.05-.11.09-.18.11-1.33.46-2.68.84-4.09.98-.16.01-.32.02-.55.03.89.84,1.95,1.18,3.06,1.44,0,.03,0,.06,0,.07-.53.64-1.05,1.29-1.58,1.92-.49.58-1.18.65-1.86.57-.86-.1-1.7-.28-2.55-.42-.5-.08-1.01-.17-1.5-.02-.25.08-.5.22-.68.4-1.01,1.02-1.59,2.28-2.03,3.63-.07.2-.16.4-.18.61-.04.33-.22.5-.5.65-.78.42-1.55.87-2.38,1.35,1.07-3.19,2.52-6.11,4.43-8.8,1.91-2.7,4.19-5.05,6.84-7.03,2.65-1.98,5.55-3.49,8.76-4.57Z"/>
</svg>