<?xml version="1.0" encoding="UTF-8"?>
<svg id="Layer_1" data-name="Layer 1" xmlns="http://www.w3.org/2000/svg" xmlns:xlink="http://www.w3.org/1999/xlink" viewBox="0 0 27.11 22.11">
  <defs>
    <style>
      .cls-1 {
        fill: #fff;
        fill-rule: evenodd;
      }

      .cls-2 {
        stroke-width: .5px;
      }

      .cls-2, .cls-3, .cls-4 {
        fill: none;
      }

      .cls-2, .cls-4 {
        stroke: #fff;
        stroke-miterlimit: 10;
      }

      .cls-4 {
        stroke-width: .75px;
      }

      .cls-5 {
        fill: url(#linear-gradient);
      }

      .cls-6 {
        clip-path: url(#clippath);
      }
    </style>
    <clipPath id="clippath">
      <polygon class="cls-3" points="2.38 .38 .38 18.6 1.38 21.73 25.73 21.73 26.73 18.6 24.73 .38 2.38 .38"/>
    </clipPath>
    <linearGradient id="linear-gradient" x1="-374.82" y1="846.34" x2="-373.82" y2="846.34" gradientTransform="translate(9876.69 22311.88) scale(26.35 -26.35)" gradientUnits="userSpaceOnUse">
      <stop offset="0" stop-color="#b57a99"/>
      <stop offset="1" stop-color="#80298f"/>
    </linearGradient>
  </defs>
  <g class="cls-6">
    <rect class="cls-5" x=".38" y=".38" width="26.35" height="21.36"/>
  </g>
  <polygon class="cls-4" points="25.73 21.73 1.38 21.73 .38 18.6 2.38 .38 24.73 .38 26.73 18.6 25.73 21.73"/>
  <g>
    <line class="cls-2" x1=".38" y1="18.6" x2="26.73" y2="18.6"/>
    <path class="cls-1" d="M4.64,14.69l.7-1.1c1.16-1.81,2.48-3.34,4.06-4.69,1.59-1.36,3.36-2.45,5.26-3.25,1.93-.81,3.91-1.28,6.05-1.44l1.04-.08-.7,1.03c-.1.16-.2.3-.31.44-.32.4-.52.59-.86.97-.13.17-.33.42-.56.41-.08,0-1.48-.25-1.56-.25l1.5.58-.65.64c-.16.16-.19.19-.35.34-.17.16-.29.22-.38.22-.2,0-1.98-.43-2.16-.44l1.91.85-.55.53c-.11.1-.21.21-.32.3-.11.1-.24.15-.42.17-.46.04-2.45-.46-2.99-.47.12.07,1.73.68,1.87.75l.42.22-.24.6-.12.06-.34.25c-.3.22-.6.45-.9.66-.46.33-1.06.35-1.66.12-.35-.13-.68-.28-1.02-.43l-.46-.21c-.25-.11-.48-.2-.66-.19-.09,0-.19.03-.24.06-.58.35-1.07.87-1.59,1.69l-.06.08c-.04.06-.08.12-.09.16-.16.43-.5.56-.74.62-.36.09-.72.19-1.09.3l-1.78.49Z"/>
  </g>
</svg>