<?xml version="1.0" encoding="UTF-8"?>
<svg id="Layer_1" data-name="Layer 1" xmlns="http://www.w3.org/2000/svg" xmlns:xlink="http://www.w3.org/1999/xlink" viewBox="0 0 27.11 22.11">
  <defs>
    <style>
      .cls-1 {
        fill: #fff;
      }

      .cls-2 {
        stroke-width: .5px;
      }

      .cls-2, .cls-3, .cls-4 {
        fill: none;
      }

      .cls-2, .cls-4 {
        stroke: #fff;
        stroke-miterlimit: 10;
      }

      .cls-4 {
        stroke-width: .75px;
      }

      .cls-5 {
        fill: url(#linear-gradient);
      }

      .cls-6 {
        clip-path: url(#clippath);
      }
    </style>
    <clipPath id="clippath">
      <polygon class="cls-3" points="2.38 .37 .38 18.6 1.38 21.73 25.73 21.73 26.73 18.6 24.73 .37 2.38 .37"/>
    </clipPath>
    <linearGradient id="linear-gradient" x1="-211.23" y1="760.14" x2="-210.23" y2="760.14" gradientTransform="translate(5566.23 20040.37) scale(26.35 -26.35)" gradientUnits="userSpaceOnUse">
      <stop offset="0" stop-color="#da2128"/>
      <stop offset="1" stop-color="#900d10"/>
    </linearGradient>
  </defs>
  <g class="cls-6">
    <rect class="cls-5" x=".38" y=".37" width="26.35" height="21.36"/>
  </g>
  <polygon class="cls-4" points="25.73 21.73 1.38 21.73 .38 18.6 2.38 .38 24.73 .38 26.73 18.6 25.73 21.73"/>
  <g>
    <line class="cls-2" x1=".38" y1="18.6" x2="26.73" y2="18.6"/>
    <polygon class="cls-1" points="15.76 11.57 19.38 12.97 20.21 16.54 10.9 16.54 15.76 11.57"/>
    <polygon class="cls-1" points="12.28 14.04 10.82 11.76 7.73 12.97 6.9 16.54 9.81 16.54 12.28 14.04"/>
    <path class="cls-1" d="M15.37,10.94l-.18-.46.96-.98.36-1.69.24-.94.23-.36c0-1.96-2.05-3.29-3.42-3.29s-3.42,1.33-3.42,3.29l.21.36.24.94.37,1.69.96.98-.46.89,1.34,2.12"/>
  </g>
</svg>