<?xml version="1.0" encoding="UTF-8"?>
<svg id="Layer_1" data-name="Layer 1" xmlns="http://www.w3.org/2000/svg" xmlns:xlink="http://www.w3.org/1999/xlink" viewBox="0 0 27.32 28.29">
  <defs>
    <style>
      .cls-1 {
        fill: url(#linear-gradient-2);
      }

      .cls-2 {
        stroke-linejoin: round;
      }

      .cls-2, .cls-3, .cls-4 {
        fill: none;
      }

      .cls-2, .cls-4 {
        stroke: #fff;
        stroke-width: .75px;
      }

      .cls-4 {
        stroke-miterlimit: 10;
      }

      .cls-5 {
        clip-path: url(#clippath-1);
      }

      .cls-6 {
        fill: url(#linear-gradient);
      }

      .cls-7 {
        clip-path: url(#clippath);
      }
    </style>
    <clipPath id="clippath">
      <path class="cls-3" d="M10.64,1.17c-.46,2-1.56,3.54-3.22,4.74-1.38.99-2.73,2.03-4.04,3.11-.95.79-1.73,1.75-2.22,2.91-1.16,2.7.54,5.46,2.24,6.95l-.17.49-.34.31-.16,1.81h.62l.95,6.44h4.15v-5.51h4.53v5.51h4.15l.95-6.44h.62l-.16-1.81-.34-.31-.27-.44c.87-.64,1.49-1.49,1.99-2.43,1.2-2.26.92-4.41-.74-6.35-1.34-1.56-2.99-2.75-4.67-3.9-1.4-.96-2.62-2.07-3.26-3.7-.2-.5-.34-1.01-.53-1.56-.05.1-.08.14-.09.18"/>
    </clipPath>
    <linearGradient id="linear-gradient" x1="-267.41" y1="765.43" x2="-266.41" y2="765.43" gradientTransform="translate(5320.07 15240.08) scale(19.89 -19.89)" gradientUnits="userSpaceOnUse">
      <stop offset="0" stop-color="#da2128"/>
      <stop offset="1" stop-color="#900d10"/>
    </linearGradient>
    <clipPath id="clippath-1">
      <polygon class="cls-3" points="18.15 11.25 18.15 15.21 14.73 13.21 12.95 16.48 16.3 18.4 12.95 20.26 14.73 23.53 18.15 21.53 18.15 25.42 21.74 25.42 21.74 21.53 25.16 23.53 26.94 20.26 23.67 18.4 26.94 16.48 25.16 13.21 21.74 15.21 21.74 11.25 18.15 11.25"/>
    </clipPath>
    <linearGradient id="linear-gradient-2" x1="-267.41" y1="765.43" x2="-266.41" y2="765.43" gradientTransform="translate(-3714.24 -10690.22) rotate(-180) scale(13.99 -13.99)" gradientUnits="userSpaceOnUse">
      <stop offset="0" stop-color="#231f20"/>
      <stop offset=".1" stop-color="#231f20"/>
      <stop offset="1" stop-color="#6d6e70"/>
    </linearGradient>
  </defs>
  <g class="cls-7">
    <rect class="cls-6" y=".99" width="21.13" height="26.93"/>
  </g>
  <path class="cls-4" d="M17.94,18.92c.87-.64,1.49-1.49,1.99-2.43,1.2-2.26.92-4.41-.74-6.35-1.34-1.56-2.99-2.75-4.67-3.9-1.4-.96-2.62-2.08-3.27-3.7-.19-.5-.34-1.01-.53-1.56-.05.1-.08.14-.09.18-.46,2-1.56,3.54-3.22,4.74-1.38,1-2.73,2.03-4.04,3.11-.95.79-1.73,1.75-2.22,2.91-1.16,2.7.54,5.46,2.24,6.95l-.17.49-.34.31-.16,1.81h.62l.95,6.44h4.16v-5.52h4.53v5.52h4.15l.95-6.44h.62l-.16-1.81-.33-.31-.27-.44Z"/>
  <g class="cls-5">
    <rect class="cls-1" x="12.95" y="11.25" width="13.99" height="14.17"/>
  </g>
  <polygon class="cls-2" points="12.95 16.48 14.73 13.21 18.15 15.21 18.15 11.25 21.75 11.25 21.75 15.21 25.16 13.21 26.94 16.48 23.67 18.41 26.94 20.26 25.16 23.53 21.75 21.53 21.75 25.42 18.15 25.42 18.15 21.53 14.73 23.53 12.95 20.26 16.3 18.41 12.95 16.48"/>
</svg>