<?xml version="1.0" encoding="UTF-8"?>
<svg id="Blue" xmlns="http://www.w3.org/2000/svg" xmlns:xlink="http://www.w3.org/1999/xlink" viewBox="0 0 40.32 28.29">
  <defs>
    <style>
      .cls-1 {
        fill: url(#linear-gradient-2);
      }

      .cls-2 {
        stroke-linejoin: round;
      }

      .cls-2, .cls-3, .cls-4 {
        fill: none;
      }

      .cls-2, .cls-4 {
        stroke: #fff;
        stroke-width: .75px;
      }

      .cls-4 {
        stroke-miterlimit: 10;
      }

      .cls-5 {
        fill: url(#linear-gradient-3);
      }

      .cls-6 {
        clip-path: url(#clippath-1);
      }

      .cls-7 {
        clip-path: url(#clippath-2);
      }

      .cls-8 {
        fill: url(#linear-gradient);
      }

      .cls-9 {
        clip-path: url(#clippath);
      }
    </style>
    <clipPath id="clippath">
      <path class="cls-3" d="M10.64,1.17c-.46,2-1.56,3.54-3.22,4.74-1.38,1-2.73,2.03-4.04,3.11-.95.79-1.73,1.75-2.22,2.91-1.16,2.7.54,5.46,2.24,6.95l-.17.49-.34.31-.16,1.81h.62l.95,6.44h4.16v-5.52h4.53v5.52h4.16l.95-6.44h.62l-.16-1.81-.34-.31-.27-.44c.87-.64,1.49-1.49,1.99-2.42,1.2-2.26.93-4.41-.74-6.35-1.34-1.56-2.99-2.75-4.67-3.89-1.4-.96-2.62-2.08-3.26-3.7-.19-.5-.34-1.01-.53-1.56-.05.1-.08.14-.09.18"/>
    </clipPath>
    <linearGradient id="linear-gradient" x1="-367.04" y1="886.17" x2="-366.04" y2="886.17" gradientTransform="translate(7301.79 17641.94) scale(19.89 -19.89)" gradientUnits="userSpaceOnUse">
      <stop offset="0" stop-color="#00adee"/>
      <stop offset="1" stop-color="#004c6c"/>
    </linearGradient>
    <clipPath id="clippath-1">
      <path class="cls-3" d="M23.64,1.17c-.46,2-1.56,3.54-3.22,4.74-1.38,1-2.73,2.03-4.04,3.11-.95.79-1.73,1.75-2.22,2.91-1.16,2.7.54,5.46,2.24,6.95l-.17.49-.34.31-.16,1.81h.62l.95,6.44h4.15v-5.52h4.53v5.52h4.16l.95-6.44h.62l-.16-1.81-.34-.31-.27-.44c.87-.64,1.49-1.49,1.99-2.42,1.2-2.26.92-4.41-.74-6.35-1.34-1.56-2.99-2.75-4.67-3.89-1.4-.96-2.62-2.08-3.26-3.7-.2-.5-.34-1.01-.53-1.56-.05.1-.08.14-.09.18"/>
    </clipPath>
    <linearGradient id="linear-gradient-2" x1="-367.04" y1="886.17" x2="-366.04" y2="886.17" gradientTransform="translate(7314.8 17641.98) scale(19.89 -19.89)" xlink:href="#linear-gradient"/>
    <clipPath id="clippath-2">
      <polygon class="cls-3" points="31.15 11.25 31.15 15.21 27.73 13.21 25.95 16.48 29.3 18.41 25.95 20.26 27.73 23.53 31.15 21.53 31.15 25.42 34.75 25.42 34.75 21.53 38.16 23.53 39.94 20.26 36.68 18.41 39.94 16.48 38.16 13.21 34.75 15.21 34.75 11.25 31.15 11.25"/>
    </clipPath>
    <linearGradient id="linear-gradient-3" x1="-405.22" y1="872.48" x2="-404.22" y2="872.48" gradientTransform="translate(-5629.12 -12187.81) rotate(-180) scale(13.99 -13.99)" gradientUnits="userSpaceOnUse">
      <stop offset="0" stop-color="#231f20"/>
      <stop offset=".1" stop-color="#231f20"/>
      <stop offset="1" stop-color="#6d6e70"/>
    </linearGradient>
  </defs>
  <g class="cls-9">
    <rect class="cls-8" y=".99" width="21.13" height="26.93"/>
  </g>
  <path class="cls-4" d="M17.94,18.92c.87-.64,1.49-1.49,1.99-2.43,1.2-2.26.92-4.41-.74-6.35-1.34-1.56-2.99-2.75-4.67-3.9-1.4-.96-2.62-2.08-3.26-3.7-.19-.5-.34-1.01-.53-1.56-.05.1-.08.14-.09.18-.46,2-1.56,3.54-3.22,4.74-1.38,1-2.73,2.03-4.04,3.11-.95.79-1.73,1.75-2.22,2.91C0,14.63,1.7,17.38,3.4,18.87l-.17.49-.34.31-.16,1.81h.62l.95,6.44h4.16v-5.52h4.53v5.52h4.15l.95-6.44h.62l-.16-1.81-.34-.31-.27-.44Z"/>
  <g class="cls-6">
    <rect class="cls-1" x="13" y=".99" width="21.13" height="26.93"/>
  </g>
  <path class="cls-4" d="M30.94,18.92c.87-.64,1.49-1.49,1.99-2.43,1.2-2.26.92-4.41-.74-6.35-1.34-1.56-2.99-2.75-4.67-3.9-1.4-.96-2.62-2.08-3.26-3.7-.19-.5-.34-1.01-.53-1.56-.05.1-.08.14-.09.18-.46,2-1.56,3.54-3.22,4.74-1.38,1-2.73,2.03-4.04,3.11-.95.79-1.73,1.75-2.22,2.91-1.16,2.7.54,5.46,2.24,6.95l-.17.49-.34.31-.16,1.81h.62l.95,6.44h4.16v-5.52h4.53v5.52h4.15l.95-6.44h.62l-.16-1.81-.34-.31-.27-.44Z"/>
  <g class="cls-7">
    <rect class="cls-5" x="25.95" y="11.25" width="13.99" height="14.17"/>
  </g>
  <polygon class="cls-2" points="25.95 16.48 27.73 13.21 31.15 15.21 31.15 11.25 34.75 11.25 34.75 15.21 38.16 13.21 39.94 16.48 36.68 18.41 39.94 20.26 38.16 23.53 34.75 21.53 34.75 25.42 31.15 25.42 31.15 21.53 27.73 23.53 25.95 20.26 29.3 18.41 25.95 16.48"/>
</svg>