<?xml version="1.0" encoding="UTF-8"?>
<svg xmlns="http://www.w3.org/2000/svg" xmlns:xlink="http://www.w3.org/1999/xlink" viewBox="0 0 43.6 27.55">
  <defs>
    <style>
      .cls-1 {
        clip-path: url(#clippath-6);
      }

      .cls-2 {
        clip-path: url(#clippath-7);
      }

      .cls-3 {
        clip-path: url(#clippath-4);
      }

      .cls-4 {
        fill: url(#linear-gradient-2);
      }

      .cls-5, .cls-6 {
        fill: none;
      }

      .cls-7 {
        fill: url(#linear-gradient-4);
      }

      .cls-6 {
        stroke: #fff;
        stroke-miterlimit: 10;
        stroke-width: .75px;
      }

      .cls-8 {
        fill: url(#linear-gradient-3);
      }

      .cls-9 {
        clip-path: url(#clippath-1);
      }

      .cls-10 {
        fill: url(#linear-gradient-5);
      }

      .cls-11 {
        clip-path: url(#clippath-5);
      }

      .cls-12 {
        fill: url(#linear-gradient-8);
      }

      .cls-13 {
        clip-path: url(#clippath-3);
      }

      .cls-14 {
        fill: url(#linear-gradient-7);
      }

      .cls-15 {
        fill: url(#linear-gradient-6);
      }

      .cls-16 {
        fill: #2a963e;
        fill-rule: evenodd;
      }

      .cls-17 {
        clip-path: url(#clippath-2);
      }

      .cls-18 {
        fill: url(#linear-gradient);
      }

      .cls-19 {
        clip-path: url(#clippath);
      }
    </style>
    <clipPath id="clippath">
      <path class="cls-5" d="M28.69.6l-8.02,3.26c-.72.29-1.22,1.16-1.11,1.93l1.27,8.74c.11.77.71,1.79,1.33,2.26l7.1,5.4c.62.47,1.61.44,2.2-.07l6.42-5.58c.59-.51,1.18-1.56,1.32-2.32l1.57-8.56c.14-.77-.34-1.62-1.07-1.9L31.33.57c-.35-.13-.81-.2-1.27-.2-.5,0-1,.08-1.37.23"/>
    </clipPath>
    <linearGradient id="linear-gradient" x1="-141.66" y1="801.08" x2="-140.66" y2="801.08" gradientTransform="translate(3029.72 17034.13) scale(21.25 -21.25)" gradientUnits="userSpaceOnUse">
      <stop offset="0" stop-color="#e6e7e8"/>
      <stop offset="1" stop-color="#c4c5c7"/>
    </linearGradient>
    <clipPath id="clippath-1">
      <path class="cls-5" d="M19.56,5.8l1.27,8.74c.11.77.71,1.79,1.33,2.26l7.1,5.4c.62.47,1.13.22,1.13-.56v-10.64c0-.78-.58-1.69-1.28-2.02l-8.46-3.98c-.18-.08-.34-.12-.49-.12-.43,0-.68.35-.59.92"/>
    </clipPath>
    <linearGradient id="linear-gradient-2" x1="-141.66" y1="801.09" x2="-140.66" y2="801.09" gradientTransform="translate(14085.31 -2463.91) rotate(-90) scale(17.55 -17.55)" gradientUnits="userSpaceOnUse">
      <stop offset="0" stop-color="#e6e7e8"/>
      <stop offset="1" stop-color="#c4c5c7"/>
    </linearGradient>
    <clipPath id="clippath-2">
      <path class="cls-5" d="M39.76,4.89l-8.1,4.05c-.7.35-1.27,1.27-1.27,2.05v10.64c0,.78.48,1,1.07.49l6.42-5.58c.59-.51,1.18-1.56,1.32-2.32l1.57-8.56c.1-.56-.12-.9-.51-.9-.14,0-.31.04-.5.14"/>
    </clipPath>
    <linearGradient id="linear-gradient-3" x1="-141.66" y1="801.07" x2="-140.66" y2="801.07" gradientTransform="translate(1504.64 8350.52) scale(10.41 -10.41)" gradientUnits="userSpaceOnUse">
      <stop offset="0" stop-color="#e6e7e8"/>
      <stop offset="1" stop-color="#c4c5c7"/>
    </linearGradient>
    <clipPath id="clippath-3">
      <path class="cls-5" d="M28.89.6l-8.03,3.26c-.72.29-.74.81-.03,1.15l8.24,3.95c.7.34,1.85.33,2.55-.01l8.32-4.07c.7-.34.68-.85-.05-1.13L31.53.57c-.35-.13-.81-.2-1.27-.2-.5,0-1,.08-1.37.23"/>
    </clipPath>
    <linearGradient id="linear-gradient-4" x1="-141.66" y1="801.08" x2="-140.66" y2="801.08" gradientTransform="translate(7109.35 -1242.58) rotate(-90) scale(8.84 -8.84)" gradientUnits="userSpaceOnUse">
      <stop offset="0" stop-color="#e6e7e8"/>
      <stop offset="1" stop-color="#c4c5c7"/>
    </linearGradient>
    <clipPath id="clippath-4">
      <path class="cls-5" d="M1.55.24h13.64c.85,0,1.55.69,1.55,1.55v23.57c0,.85-.69,1.55-1.55,1.55H1.55c-.86,0-1.55-.7-1.55-1.55V1.79C0,.93.69.24,1.55.24Z"/>
    </clipPath>
    <linearGradient id="linear-gradient-5" x1="-157.83" y1="798.23" x2="-156.83" y2="798.23" gradientTransform="translate(2642.14 13376.12) scale(16.74 -16.74)" gradientUnits="userSpaceOnUse">
      <stop offset="0" stop-color="#fff"/>
      <stop offset="1" stop-color="#b7b9bb"/>
    </linearGradient>
    <clipPath id="clippath-5">
      <path class="cls-5" d="M1.55.24C.69.24,0,.93,0,1.79v3.82h16.74s0-3.82,0-3.82c0-.86-.69-1.55-1.55-1.55H1.55Z"/>
    </clipPath>
    <linearGradient id="linear-gradient-6" x1="-150.56" y1="750.62" x2="-149.56" y2="750.62" gradientTransform="translate(-4018.93 -802.21) rotate(-90) scale(5.37)" gradientUnits="userSpaceOnUse">
      <stop offset="0" stop-color="#fd0"/>
      <stop offset=".78" stop-color="#bd8110"/>
      <stop offset="1" stop-color="#bd8110"/>
    </linearGradient>
    <clipPath id="clippath-6">
      <polygon class="cls-5" points="6.75 11.94 2.71 11.94 2.7 15.2 6.74 15.2 6.73 19.25 9.99 19.25 9.99 15.2 14.03 15.21 14.03 11.95 10 11.94 10.01 7.9 6.76 7.9 6.75 11.94"/>
    </clipPath>
    <linearGradient id="linear-gradient-7" x1="-137.45" y1="777.24" x2="-136.45" y2="777.24" gradientTransform="translate(-8816.79 1568.58) rotate(90) scale(11.35 -11.35)" gradientUnits="userSpaceOnUse">
      <stop offset="0" stop-color="#96999b"/>
      <stop offset="1" stop-color="#000"/>
    </linearGradient>
    <clipPath id="clippath-7">
      <path class="cls-5" d="M0,25.35c0,.86.69,1.55,1.55,1.55h13.64c.85,0,1.55-.69,1.55-1.55v-3.82H0S0,25.35,0,25.35Z"/>
    </clipPath>
    <linearGradient id="linear-gradient-8" x1="-132.75" y1="851.55" x2="-131.75" y2="851.55" gradientTransform="translate(4577.19 733.8) rotate(90) scale(5.37)" gradientUnits="userSpaceOnUse">
      <stop offset="0" stop-color="#0083ae"/>
      <stop offset="1" stop-color="#00052f"/>
    </linearGradient>
  </defs>
  <g id="Layer_1" data-name="Layer 1">
    <g class="cls-19">
      <rect class="cls-18" x="19.45" y=".37" width="21.46" height="22.29"/>
    </g>
    <g class="cls-9">
      <rect class="cls-4" x="19.48" y="4.87" width="10.91" height="17.79"/>
    </g>
    <g class="cls-17">
      <rect class="cls-8" x="30.39" y="4.75" width="10.48" height="17.88"/>
    </g>
    <g class="cls-13">
      <rect class="cls-7" x="20.13" y=".37" width="20.52" height="8.92"/>
    </g>
    <g>
      <path class="cls-6" d="M31.33.57c-.73-.28-1.92-.26-2.64.03l-8.03,3.26c-.72.29-1.22,1.16-1.11,1.94l1.27,8.73c.11.77.71,1.79,1.33,2.26l7.1,5.39c.62.47,1.61.44,2.2-.07l6.42-5.58c.59-.51,1.18-1.56,1.32-2.32l1.57-8.56c.14-.77-.34-1.62-1.07-1.9L31.33.57Z"/>
      <path class="cls-16" d="M42.83,19.6c.37-.37.54-.81.22-1.29-.26-.39-.81-.66-1.26-.47-.21.09-.39.27-.56.44-.91.9-1.31,1.3-2.21,2.21-.09-.05,0,.02-.09-.02.11-.23.18-.5.35-.67,1.17-1.2,1.88-1.88,3.06-3.08.51-.52.56-1.09.14-1.54-.45-.49-1.19-.54-1.76.02-.98.95-1.43,1.42-2.4,2.38-.11.11-.21.26-.35.33-.13.07-.16.12-.32.15.05-.13.05-.3.14-.39,1.11-1.12,1.73-1.74,2.85-2.86.74-.74.75-1.47.22-1.97-.5-.48-1.04-.36-1.79.39-1.19,1.19-1.88,1.89-3.08,3.06-.16.15-.32.31-.54.41-.04-.07-.09-.14-.13-.2.13-.15.26-.32.41-.46,1-1.01,1.52-1.51,2.52-2.52.55-.55.61-1.13.18-1.57-.44-.46-1.01-.45-1.58.11-1.37,1.34-1.72,1.73-3.08,3.09-.08.08-1.15,1.14-1.35,1.35.12-.6.23-1.02.3-1.44.16-.95-.22-1.8-.96-2.22-.71-.4-1.17-.17-1.18.64l-.47,3.12c-.33,1.02-.08,2.33-.14,3.39-.06,1.1-.37,1.96-1.25,2.61-.39.28-.32.55,0,.87,1.01.97,1.99,1.98,2.98,2.97,1.04,1.04,1.04,1.05,2.06,0,.3-.31.58-.45,1.03-.36.88.16,1.67-.13,2.3-.73l5.73-5.71Z"/>
      <path class="cls-6" d="M42.83,19.6c.37-.37.54-.81.22-1.29-.26-.39-.81-.66-1.26-.47-.21.09-.39.27-.56.44-.91.9-1.31,1.3-2.21,2.21-.09-.05,0,.02-.09-.02.11-.23.18-.5.35-.67,1.17-1.2,1.88-1.88,3.06-3.08.51-.52.56-1.09.14-1.54-.45-.49-1.19-.54-1.76.02-.98.95-1.43,1.42-2.4,2.38-.11.11-.21.26-.35.33-.13.07-.16.12-.32.15.05-.13.05-.3.14-.39,1.11-1.12,1.73-1.74,2.85-2.86.74-.74.75-1.47.22-1.97-.5-.48-1.04-.36-1.79.39-1.19,1.19-1.88,1.89-3.08,3.06-.16.15-.32.31-.54.41-.04-.07-.09-.14-.13-.2.13-.15.26-.32.41-.46,1-1.01,1.52-1.51,2.52-2.52.55-.55.61-1.13.18-1.57-.44-.46-1.01-.45-1.58.11-1.37,1.34-1.72,1.73-3.08,3.09-.08.08-1.15,1.14-1.35,1.35.12-.6.23-1.02.3-1.44.16-.95-.22-1.8-.96-2.22-.71-.4-1.17-.17-1.18.64l-.47,3.12c-.33,1.02-.08,2.33-.14,3.39-.06,1.1-.37,1.96-1.25,2.61-.39.28-.32.55,0,.87,1.01.97,1.99,1.98,2.98,2.97,1.04,1.04,1.04,1.05,2.06,0,.3-.31.58-.45,1.03-.36.88.16,1.67-.13,2.3-.73l5.73-5.71Z"/>
    </g>
  </g>
  <g id="Layer_2" data-name="Layer 2">
    <g class="cls-3">
      <rect class="cls-10" x="0" y=".24" width="16.74" height="26.66"/>
    </g>
    <g class="cls-11">
      <rect class="cls-15" x="0" y=".24" width="16.74" height="5.37"/>
    </g>
    <g class="cls-1">
      <rect class="cls-14" x="2.7" y="7.9" width="11.33" height="11.35"/>
    </g>
    <g class="cls-2">
      <rect class="cls-12" x="0" y="21.54" width="16.74" height="5.37"/>
    </g>
  </g>
</svg>