<?xml version="1.0" encoding="UTF-8"?>
<svg xmlns="http://www.w3.org/2000/svg" xmlns:xlink="http://www.w3.org/1999/xlink" viewBox="0 0 54.87 58.94">
  <defs>
    <style>
      .cls-1 {
        clip-path: url(#clippath-6);
      }

      .cls-2 {
        clip-path: url(#clippath-7);
      }

      .cls-3 {
        clip-path: url(#clippath-4);
      }

      .cls-4 {
        fill: url(#linear-gradient-2);
      }

      .cls-5 {
        stroke-linejoin: round;
      }

      .cls-5, .cls-6, .cls-7, .cls-8 {
        fill: none;
      }

      .cls-5, .cls-6, .cls-8 {
        stroke: #fff;
      }

      .cls-5, .cls-8 {
        stroke-width: .75px;
      }

      .cls-9, .cls-10 {
        fill: #fff;
      }

      .cls-10 {
        fill-rule: evenodd;
      }

      .cls-6 {
        stroke-width: .5px;
      }

      .cls-6, .cls-8 {
        stroke-miterlimit: 10;
      }

      .cls-11 {
        fill: url(#linear-gradient-4);
      }

      .cls-12 {
        fill: url(#linear-gradient-3);
      }

      .cls-13 {
        clip-path: url(#clippath-1);
      }

      .cls-14 {
        fill: url(#linear-gradient-5);
      }

      .cls-15 {
        clip-path: url(#clippath-5);
      }

      .cls-16 {
        fill: url(#linear-gradient-8);
      }

      .cls-17 {
        clip-path: url(#clippath-3);
      }

      .cls-18 {
        fill: url(#linear-gradient-7);
      }

      .cls-19 {
        fill: url(#linear-gradient-6);
      }

      .cls-20 {
        clip-path: url(#clippath-2);
      }

      .cls-21 {
        fill: url(#linear-gradient);
      }

      .cls-22 {
        clip-path: url(#clippath);
      }
    </style>
    <clipPath id="clippath">
      <polygon class="cls-7" points="2.38 34.55 .38 52.78 1.38 55.91 25.73 55.91 26.73 52.78 24.73 34.55 2.38 34.55"/>
    </clipPath>
    <linearGradient id="linear-gradient" x1="-374.82" y1="880.52" x2="-373.82" y2="880.52" gradientTransform="translate(9876.69 23246.55) scale(26.35 -26.35)" gradientUnits="userSpaceOnUse">
      <stop offset="0" stop-color="#b57a99"/>
      <stop offset="1" stop-color="#80298f"/>
    </linearGradient>
    <clipPath id="clippath-1">
      <path class="cls-7" d="M39.15,31.9h13.64c.85,0,1.55.69,1.55,1.55v23.57c0,.85-.69,1.55-1.55,1.55h-13.64c-.86,0-1.55-.7-1.55-1.55v-23.56c0-.85.69-1.55,1.55-1.55Z"/>
    </clipPath>
    <linearGradient id="linear-gradient-2" x1="-374.82" y1="880.52" x2="-373.82" y2="880.52" gradientTransform="translate(6312.13 14785.29) scale(16.74 -16.74)" gradientUnits="userSpaceOnUse">
      <stop offset="0" stop-color="#fff"/>
      <stop offset="1" stop-color="#b7b9bb"/>
    </linearGradient>
    <clipPath id="clippath-2">
      <path class="cls-7" d="M39.14,31.9c-.85,0-1.55.69-1.55,1.55v3.82h16.74s0-3.82,0-3.82c0-.86-.69-1.55-1.55-1.55h-13.64Z"/>
    </clipPath>
    <linearGradient id="linear-gradient-3" x1="-374.82" y1="880.52" x2="-373.82" y2="880.52" gradientTransform="translate(-4678.28 -1973.75) rotate(-90) scale(5.37)" gradientUnits="userSpaceOnUse">
      <stop offset="0" stop-color="#fd0"/>
      <stop offset=".78" stop-color="#bd8110"/>
      <stop offset="1" stop-color="#bd8110"/>
    </linearGradient>
    <clipPath id="clippath-3">
      <polygon class="cls-7" points="44.34 43.6 40.31 43.59 40.3 46.86 44.34 46.86 44.33 50.9 47.58 50.91 47.59 46.86 51.62 46.87 51.63 43.61 47.6 43.6 47.6 39.56 44.35 39.55 44.34 43.6"/>
    </clipPath>
    <linearGradient id="linear-gradient-4" x1="-374.82" y1="880.52" x2="-373.82" y2="880.52" gradientTransform="translate(-9951.89 4295.43) rotate(90) scale(11.35 -11.35)" gradientUnits="userSpaceOnUse">
      <stop offset="0" stop-color="#96999b"/>
      <stop offset="1" stop-color="#000"/>
    </linearGradient>
    <clipPath id="clippath-4">
      <path class="cls-7" d="M37.6,57.01c0,.86.69,1.55,1.55,1.55h13.64c.85,0,1.55-.69,1.55-1.55v-3.82h-16.74s0,3.82,0,3.82Z"/>
    </clipPath>
    <linearGradient id="linear-gradient-5" x1="-374.82" y1="880.52" x2="-373.82" y2="880.52" gradientTransform="translate(4770.22 2064.21) rotate(90) scale(5.37)" gradientUnits="userSpaceOnUse">
      <stop offset="0" stop-color="#0083ae"/>
      <stop offset="1" stop-color="#00052f"/>
    </linearGradient>
    <clipPath id="clippath-5">
      <path class="cls-7" d="M19.01,1.17c-.46,2-1.56,3.54-3.22,4.74-1.38,1-2.73,2.03-4.04,3.11-.95.79-1.73,1.75-2.22,2.91-1.16,2.7.54,5.46,2.24,6.95l-.17.49-.34.31-.16,1.81h.62l.95,6.44h4.15v-5.52h4.53v5.52h4.15l.95-6.44h.62l-.16-1.81-.33-.31-.28-.44c.87-.64,1.49-1.49,1.99-2.43,1.2-2.26.92-4.41-.74-6.35-1.34-1.56-2.99-2.75-4.67-3.89-1.4-.96-2.62-2.08-3.26-3.7-.19-.5-.34-1.01-.53-1.57-.05.1-.08.14-.09.18"/>
    </clipPath>
    <linearGradient id="linear-gradient-6" x1="-387.67" y1="877.5" x2="-386.67" y2="877.5" gradientTransform="translate(7720.63 17469.34) scale(19.89 -19.89)" gradientUnits="userSpaceOnUse">
      <stop offset="0" stop-color="#96999b"/>
      <stop offset="1" stop-color="#000"/>
    </linearGradient>
    <clipPath id="clippath-6">
      <path class="cls-7" d="M32.01,1.17c-.46,2-1.56,3.54-3.22,4.74-1.38,1-2.73,2.03-4.04,3.11-.95.79-1.73,1.75-2.22,2.91-1.16,2.7.54,5.46,2.24,6.95l-.17.49-.34.31-.16,1.81h.62l.95,6.44h4.15v-5.52h4.53v5.52h4.15l.95-6.44h.62l-.16-1.81-.33-.31-.28-.44c.87-.64,1.49-1.49,1.99-2.43,1.2-2.26.92-4.41-.74-6.35-1.34-1.56-2.99-2.75-4.67-3.89-1.4-.96-2.62-2.08-3.26-3.7-.19-.5-.34-1.01-.53-1.57-.05.1-.08.14-.09.18"/>
    </clipPath>
    <linearGradient id="linear-gradient-7" x1="-387.02" x2="-386.02" xlink:href="#linear-gradient-6"/>
    <clipPath id="clippath-7">
      <polygon class="cls-7" points="39.52 11.25 39.52 15.21 36.1 13.21 34.32 16.48 37.67 18.41 34.32 20.26 36.1 23.53 39.52 21.53 39.52 25.42 43.12 25.42 43.12 21.53 46.53 23.53 48.31 20.26 45.04 18.41 48.31 16.48 46.53 13.21 43.12 15.21 43.12 11.25 39.52 11.25"/>
    </clipPath>
    <linearGradient id="linear-gradient-8" x1="-357.47" y1="884.82" x2="-356.47" y2="884.82" gradientTransform="translate(-4952.75 -12360.42) rotate(-180) scale(13.99 -13.99)" gradientUnits="userSpaceOnUse">
      <stop offset="0" stop-color="#231f20"/>
      <stop offset=".1" stop-color="#231f20"/>
      <stop offset="1" stop-color="#6d6e70"/>
    </linearGradient>
  </defs>
  <g id="Layer_1" data-name="Layer 1">
    <g>
      <polygon class="cls-9" points="33.13 38.94 30.63 51.62 29.64 51.5 32.14 38.83 33.13 38.94"/>
      <polygon class="cls-6" points="33.13 38.94 30.63 51.62 29.64 51.5 32.14 38.83 33.13 38.94"/>
    </g>
    <g class="cls-22">
      <rect class="cls-21" x=".38" y="34.55" width="26.35" height="21.36"/>
    </g>
    <polygon class="cls-8" points="25.73 55.91 1.38 55.91 .38 52.78 2.38 34.55 24.73 34.55 26.73 52.78 25.73 55.91"/>
    <g>
      <line class="cls-6" x1=".38" y1="52.78" x2="26.73" y2="52.78"/>
      <path class="cls-10" d="M4.64,48.87l.7-1.1c1.16-1.81,2.48-3.34,4.06-4.69,1.59-1.36,3.36-2.45,5.26-3.25,1.93-.81,3.91-1.28,6.05-1.44l1.04-.08-.7,1.03c-.1.16-.2.3-.31.44-.32.4-.52.59-.86.97-.13.17-.33.42-.56.41-.08,0-1.48-.25-1.56-.25l1.5.58-.65.64c-.16.16-.19.19-.35.34-.17.16-.29.22-.38.22-.2,0-1.98-.43-2.16-.44l1.91.85-.55.53c-.11.1-.21.21-.32.3-.11.1-.24.15-.42.17-.46.04-2.45-.46-2.99-.47.12.07,1.73.68,1.87.75l.42.22-.24.6-.12.06-.34.25c-.3.22-.6.45-.9.66-.46.33-1.06.35-1.66.12-.35-.13-.68-.28-1.02-.43l-.46-.21c-.25-.11-.48-.2-.66-.19-.09,0-.19.03-.24.06-.58.35-1.07.87-1.59,1.69l-.06.08c-.04.06-.08.12-.09.16-.16.43-.5.56-.74.62-.36.09-.72.19-1.09.3l-1.78.49Z"/>
    </g>
    <g class="cls-13">
      <rect class="cls-4" x="37.6" y="31.9" width="16.74" height="26.66"/>
    </g>
    <g class="cls-20">
      <rect class="cls-12" x="37.6" y="31.9" width="16.74" height="5.37"/>
    </g>
    <g class="cls-17">
      <rect class="cls-11" x="40.3" y="39.55" width="11.33" height="11.35"/>
    </g>
    <g class="cls-3">
      <rect class="cls-14" x="37.6" y="53.19" width="16.74" height="5.37"/>
    </g>
    <path class="cls-8" d="M39.3,31.9h13.64c.86,0,1.55.69,1.55,1.55v23.56c0,.85-.69,1.55-1.55,1.55h-13.64c-.85,0-1.55-.69-1.55-1.55v-23.56c0-.86.7-1.55,1.55-1.55Z"/>
  </g>
  <g id="Black">
    <g class="cls-15">
      <rect class="cls-19" x="8.37" y=".99" width="21.13" height="26.93"/>
    </g>
    <path class="cls-8" d="M26.31,18.92c.87-.64,1.49-1.49,1.99-2.43,1.2-2.26.92-4.41-.74-6.35-1.34-1.56-2.99-2.75-4.67-3.9-1.4-.96-2.62-2.08-3.27-3.7-.19-.5-.34-1.01-.53-1.56-.05.1-.08.14-.09.18-.46,2-1.56,3.54-3.22,4.74-1.38,1-2.73,2.03-4.04,3.11-.95.79-1.73,1.75-2.22,2.91-1.16,2.7.54,5.46,2.24,6.95l-.17.49-.34.31-.16,1.81h.62l.95,6.44h4.16v-5.52h4.53v5.52h4.16l.95-6.44h.62l-.16-1.81-.34-.31-.27-.44Z"/>
    <g class="cls-1">
      <rect class="cls-18" x="21.37" y=".99" width="21.13" height="26.93"/>
    </g>
    <path class="cls-8" d="M39.31,18.92c.87-.64,1.49-1.49,1.99-2.43,1.2-2.26.92-4.41-.74-6.35-1.34-1.56-2.99-2.75-4.67-3.9-1.4-.96-2.62-2.08-3.27-3.7-.19-.5-.34-1.01-.53-1.56-.05.1-.08.14-.09.18-.46,2-1.56,3.54-3.22,4.74-1.38,1-2.73,2.03-4.04,3.11-.95.79-1.73,1.75-2.22,2.91-1.16,2.7.54,5.46,2.24,6.95l-.17.49-.34.31-.16,1.81h.62l.95,6.44h4.16v-5.52h4.53v5.52h4.16l.95-6.44h.62l-.16-1.81-.34-.31-.27-.44Z"/>
    <g class="cls-2">
      <rect class="cls-16" x="34.32" y="11.25" width="13.99" height="14.17"/>
    </g>
    <polygon class="cls-5" points="34.32 16.48 36.1 13.21 39.52 15.21 39.52 11.25 43.12 11.25 43.12 15.21 46.53 13.21 48.31 16.48 45.04 18.41 48.31 20.26 46.53 23.53 43.12 21.53 43.12 25.42 39.52 25.42 39.52 21.53 36.1 23.53 34.32 20.26 37.67 18.41 34.32 16.48"/>
  </g>
</svg>