<?xml version="1.0" encoding="UTF-8"?>
<svg id="Layer_1" data-name="Layer 1" xmlns="http://www.w3.org/2000/svg" xmlns:xlink="http://www.w3.org/1999/xlink" viewBox="0 0 85.8 24.09">
  <defs>
    <style>
      .cls-1 {
        clip-path: url(#clippath-6);
      }

      .cls-2 {
        clip-path: url(#clippath-7);
      }

      .cls-3 {
        clip-path: url(#clippath-4);
      }

      .cls-4 {
        fill: url(#linear-gradient-2);
      }

      .cls-5 {
        fill: url(#linear-gradient-10);
      }

      .cls-6 {
        clip-path: url(#clippath-9);
      }

      .cls-7 {
        clip-path: url(#clippath-10);
      }

      .cls-8, .cls-9 {
        fill: #fff;
      }

      .cls-10, .cls-11, .cls-12, .cls-13 {
        fill: none;
      }

      .cls-10, .cls-11, .cls-13 {
        stroke: #fff;
        stroke-miterlimit: 10;
      }

      .cls-9 {
        fill-rule: evenodd;
      }

      .cls-11 {
        stroke-width: .5px;
      }

      .cls-14 {
        fill: url(#linear-gradient-4);
      }

      .cls-13 {
        stroke-width: .75px;
      }

      .cls-15 {
        fill: url(#linear-gradient-3);
      }

      .cls-16 {
        clip-path: url(#clippath-1);
      }

      .cls-17 {
        fill: url(#linear-gradient-5);
      }

      .cls-18 {
        clip-path: url(#clippath-8);
      }

      .cls-19 {
        fill: url(#linear-gradient-8);
      }

      .cls-20 {
        clip-path: url(#clippath-3);
      }

      .cls-21 {
        fill: url(#linear-gradient-7);
      }

      .cls-22 {
        fill: url(#linear-gradient-9);
      }

      .cls-23 {
        fill: #58595b;
      }

      .cls-24 {
        fill: url(#linear-gradient-6);
      }

      .cls-25 {
        clip-path: url(#clippath-2);
      }

      .cls-26 {
        fill: url(#linear-gradient);
      }

      .cls-27 {
        clip-path: url(#clippath);
      }
    </style>
    <clipPath id="clippath">
      <polygon class="cls-12" points="12.09 14.52 11.23 22.37 11.66 23.72 22.14 23.72 22.57 22.37 21.71 14.52 12.09 14.52"/>
    </clipPath>
    <linearGradient id="linear-gradient" x1="-387.41" y1="935.75" x2="-386.41" y2="935.75" gradientTransform="translate(4403.65 10628.56) scale(11.34 -11.34)" gradientUnits="userSpaceOnUse">
      <stop offset="0" stop-color="#b57a99"/>
      <stop offset="1" stop-color="#80298f"/>
    </linearGradient>
    <clipPath id="clippath-1">
      <polygon class="cls-12" points="25.09 14.52 24.23 22.37 24.66 23.72 35.14 23.72 35.57 22.37 34.71 14.52 25.09 14.52"/>
    </clipPath>
    <linearGradient id="linear-gradient-2" x1="-387.41" y1="935.75" x2="-386.41" y2="935.75" gradientTransform="translate(4416.66 10628.56) scale(11.34 -11.34)" gradientUnits="userSpaceOnUse">
      <stop offset="0" stop-color="#b57a99"/>
      <stop offset="1" stop-color="#80298f"/>
    </linearGradient>
    <clipPath id="clippath-2">
      <polygon class="cls-12" points="51.09 14.52 50.23 22.37 50.66 23.72 61.14 23.72 61.57 22.37 60.71 14.52 51.09 14.52"/>
    </clipPath>
    <linearGradient id="linear-gradient-3" x1="-387.41" y1="935.75" x2="-386.41" y2="935.75" gradientTransform="translate(4442.66 10628.56) scale(11.34 -11.34)" gradientUnits="userSpaceOnUse">
      <stop offset="0" stop-color="#b57a99"/>
      <stop offset="1" stop-color="#80298f"/>
    </linearGradient>
    <clipPath id="clippath-3">
      <polygon class="cls-12" points="64.1 14.52 63.23 22.37 63.66 23.72 74.14 23.72 74.57 22.37 73.71 14.52 64.1 14.52"/>
    </clipPath>
    <linearGradient id="linear-gradient-4" x1="-387.41" y1="935.75" x2="-386.41" y2="935.75" gradientTransform="translate(4455.62 10628.47) scale(11.34 -11.34)" gradientUnits="userSpaceOnUse">
      <stop offset="0" stop-color="#b57a99"/>
      <stop offset="1" stop-color="#80298f"/>
    </linearGradient>
    <clipPath id="clippath-4">
      <polygon class="cls-12" points="12.09 .38 11.23 8.22 11.66 9.57 22.14 9.57 22.57 8.22 21.71 .38 12.09 .38"/>
    </clipPath>
    <linearGradient id="linear-gradient-5" x1="-387.41" y1="935.75" x2="-386.41" y2="935.75" gradientTransform="translate(4403.65 10614.41) scale(11.34 -11.34)" gradientUnits="userSpaceOnUse">
      <stop offset="0" stop-color="#b57a99"/>
      <stop offset="1" stop-color="#80298f"/>
    </linearGradient>
    <clipPath id="clippath-6">
      <polygon class="cls-12" points="25.09 .38 24.23 8.22 24.66 9.57 35.14 9.57 35.57 8.22 34.71 .38 25.09 .38"/>
    </clipPath>
    <linearGradient id="linear-gradient-6" x1="-387.41" y1="935.75" x2="-386.41" y2="935.75" gradientTransform="translate(4416.66 10614.41) scale(11.34 -11.34)" gradientUnits="userSpaceOnUse">
      <stop offset="0" stop-color="#b57a99"/>
      <stop offset="1" stop-color="#80298f"/>
    </linearGradient>
    <clipPath id="clippath-7">
      <polygon class="cls-12" points="38.09 .38 37.23 8.22 37.66 9.57 48.14 9.57 48.57 8.22 47.71 .38 38.09 .38"/>
    </clipPath>
    <linearGradient id="linear-gradient-7" x1="-387.41" y1="935.75" x2="-386.41" y2="935.75" gradientTransform="translate(4429.66 10614.41) scale(11.34 -11.34)" gradientUnits="userSpaceOnUse">
      <stop offset="0" stop-color="#b57a99"/>
      <stop offset="1" stop-color="#80298f"/>
    </linearGradient>
    <clipPath id="clippath-8">
      <polygon class="cls-12" points="51.09 .38 50.23 8.22 50.66 9.57 61.14 9.57 61.57 8.22 60.71 .38 51.09 .38"/>
    </clipPath>
    <linearGradient id="linear-gradient-8" x1="-387.41" y1="935.75" x2="-386.41" y2="935.75" gradientTransform="translate(4442.66 10614.41) scale(11.34 -11.34)" gradientUnits="userSpaceOnUse">
      <stop offset="0" stop-color="#b57a99"/>
      <stop offset="1" stop-color="#80298f"/>
    </linearGradient>
    <clipPath id="clippath-9">
      <polygon class="cls-12" points="64.1 .38 63.23 8.22 63.66 9.57 74.14 9.57 74.57 8.22 73.71 .38 64.1 .38"/>
    </clipPath>
    <linearGradient id="linear-gradient-9" x1="-387.41" y1="935.75" x2="-386.41" y2="935.75" gradientTransform="translate(4455.62 10614.32) scale(11.34 -11.34)" gradientUnits="userSpaceOnUse">
      <stop offset="0" stop-color="#b57a99"/>
      <stop offset="1" stop-color="#80298f"/>
    </linearGradient>
    <clipPath id="clippath-10">
      <polygon class="cls-12" points="38.09 14.52 37.23 22.37 37.66 23.72 48.14 23.72 48.57 22.37 47.71 14.52 38.09 14.52"/>
    </clipPath>
    <linearGradient id="linear-gradient-10" x1="-387.41" y1="935.75" x2="-386.41" y2="935.75" gradientTransform="translate(4429.66 10628.56) scale(11.34 -11.34)" gradientUnits="userSpaceOnUse">
      <stop offset="0" stop-color="#b57a99"/>
      <stop offset="1" stop-color="#80298f"/>
    </linearGradient>
  </defs>
  <g class="cls-27">
    <rect class="cls-26" x="11.23" y="14.52" width="11.34" height="9.19"/>
  </g>
  <polygon class="cls-13" points="22.14 23.72 11.66 23.72 11.23 22.37 12.09 14.52 21.71 14.52 22.57 22.37 22.14 23.72"/>
  <line class="cls-11" x1="11.23" y1="22.37" x2="22.57" y2="22.37"/>
  <g class="cls-16">
    <rect class="cls-4" x="24.23" y="14.52" width="11.34" height="9.19"/>
  </g>
  <polygon class="cls-13" points="35.14 23.72 24.66 23.72 24.23 22.37 25.09 14.52 34.71 14.52 35.57 22.37 35.14 23.72"/>
  <line class="cls-11" x1="24.23" y1="22.37" x2="35.57" y2="22.37"/>
  <g class="cls-25">
    <rect class="cls-15" x="50.23" y="14.52" width="11.34" height="9.19"/>
  </g>
  <polygon class="cls-13" points="61.14 23.72 50.66 23.72 50.23 22.37 51.09 14.52 60.71 14.52 61.57 22.37 61.14 23.72"/>
  <line class="cls-11" x1="50.23" y1="22.37" x2="61.57" y2="22.37"/>
  <g class="cls-20">
    <rect class="cls-14" x="63.23" y="14.52" width="11.34" height="9.19"/>
  </g>
  <polygon class="cls-13" points="74.14 23.72 63.66 23.72 63.23 22.37 64.09 14.52 73.71 14.52 74.57 22.37 74.14 23.72"/>
  <line class="cls-11" x1="63.23" y1="22.37" x2="74.57" y2="22.37"/>
  <g class="cls-3">
    <rect class="cls-17" x="11.23" y=".38" width="11.34" height="9.19"/>
  </g>
  <polygon class="cls-13" points="22.14 9.57 11.66 9.57 11.23 8.22 12.09 .38 21.71 .38 22.57 8.22 22.14 9.57"/>
  <line class="cls-11" x1="11.23" y1="8.22" x2="22.57" y2="8.22"/>
  <g class="cls-1">
    <rect class="cls-24" x="24.23" y=".38" width="11.34" height="9.19"/>
  </g>
  <polygon class="cls-13" points="35.14 9.57 24.66 9.57 24.23 8.22 25.09 .38 34.71 .38 35.57 8.22 35.14 9.57"/>
  <line class="cls-11" x1="24.23" y1="8.22" x2="35.57" y2="8.22"/>
  <g class="cls-2">
    <rect class="cls-21" x="37.23" y=".38" width="11.34" height="9.19"/>
  </g>
  <polygon class="cls-13" points="48.14 9.57 37.66 9.57 37.23 8.22 38.09 .38 47.71 .38 48.57 8.22 48.14 9.57"/>
  <line class="cls-11" x1="37.23" y1="8.22" x2="48.57" y2="8.22"/>
  <g class="cls-18">
    <rect class="cls-19" x="50.23" y=".38" width="11.34" height="9.19"/>
  </g>
  <polygon class="cls-13" points="61.14 9.57 50.66 9.57 50.23 8.22 51.09 .38 60.71 .38 61.57 8.22 61.14 9.57"/>
  <line class="cls-11" x1="50.23" y1="8.22" x2="61.57" y2="8.22"/>
  <g class="cls-6">
    <rect class="cls-22" x="63.23" y=".38" width="11.34" height="9.19"/>
  </g>
  <polygon class="cls-13" points="74.14 9.57 63.66 9.57 63.23 8.22 64.09 .38 73.71 .38 74.57 8.22 74.14 9.57"/>
  <g>
    <line class="cls-11" x1="63.23" y1="8.22" x2="74.57" y2="8.22"/>
    <path class="cls-23" d="M6.61,5.3h72.58c1.56,0,2.83,1.27,2.83,2.83v7.83c0,1.56-1.27,2.83-2.83,2.83H6.61c-1.57,0-2.84-1.27-2.84-2.84v-7.83c0-1.57,1.27-2.84,2.84-2.84Z"/>
    <path class="cls-10" d="M6.61,5.3h72.58c1.56,0,2.83,1.27,2.83,2.83v7.83c0,1.56-1.27,2.83-2.83,2.83H6.61c-1.57,0-2.84-1.27-2.84-2.84v-7.83c0-1.57,1.27-2.84,2.84-2.84Z"/>
  </g>
  <g>
    <polygon class="cls-8" points="85.8 9.64 78.25 9.64 82.03 14.46 85.8 9.64"/>
    <polygon class="cls-8" points="0 14.46 7.54 14.46 3.77 9.64 0 14.46"/>
  </g>
  <g class="cls-7">
    <rect class="cls-5" x="37.23" y="14.52" width="11.34" height="9.19"/>
  </g>
  <polygon class="cls-13" points="48.14 23.72 37.66 23.72 37.23 22.37 38.09 14.52 47.71 14.52 48.57 22.37 48.14 23.72"/>
  <g>
    <line class="cls-11" x1="37.23" y1="22.37" x2="48.57" y2="22.37"/>
    <path class="cls-9" d="M39.07,20.69l.3-.47c.5-.78,1.07-1.44,1.75-2.02.68-.59,1.44-1.06,2.26-1.4.83-.35,1.68-.55,2.6-.62l.45-.03-.3.44c-.05.07-.09.13-.13.19-.14.17-.22.25-.37.42-.06.07-.14.18-.24.17-.04,0-.64-.11-.67-.11l.64.25-.28.28c-.07.07-.08.08-.15.15-.07.07-.13.09-.16.09-.08,0-.85-.19-.93-.19l.82.37-.24.23s-.09.09-.14.13c-.05.04-.11.06-.18.07-.2.02-1.06-.2-1.29-.2.05.03.74.29.8.32l.18.1-.1.26-.05.02-.15.11c-.13.1-.26.19-.39.29-.2.14-.46.15-.71.05-.15-.06-.29-.12-.44-.19l-.2-.09c-.11-.05-.21-.09-.28-.08-.04,0-.08.01-.1.03-.25.15-.46.38-.68.73l-.02.04s-.03.05-.04.07c-.07.18-.21.24-.32.27-.15.04-.31.08-.47.13l-.77.21Z"/>
  </g>
</svg>