<?xml version="1.0" encoding="UTF-8"?>
<svg id="Layer_1" data-name="Layer 1" xmlns="http://www.w3.org/2000/svg" xmlns:xlink="http://www.w3.org/1999/xlink" viewBox="0 0 52.73 18.93">
  <defs>
    <style>
      .cls-1 {
        clip-path: url(#clippath-6);
      }

      .cls-2 {
        clip-path: url(#clippath-7);
      }

      .cls-3 {
        clip-path: url(#clippath-4);
      }

      .cls-4 {
        fill: url(#linear-gradient-2);
      }

      .cls-5 {
        fill: url(#linear-gradient-10);
      }

      .cls-6 {
        clip-path: url(#clippath-9);
      }

      .cls-7 {
        fill: #fff;
      }

      .cls-8 {
        stroke-width: .5px;
      }

      .cls-8, .cls-9, .cls-10 {
        fill: none;
      }

      .cls-8, .cls-10 {
        stroke: #fff;
        stroke-miterlimit: 10;
      }

      .cls-11 {
        fill: url(#linear-gradient-4);
      }

      .cls-10 {
        stroke-width: .75px;
      }

      .cls-12 {
        fill: url(#linear-gradient-3);
      }

      .cls-13 {
        clip-path: url(#clippath-1);
      }

      .cls-14 {
        fill: url(#linear-gradient-5);
      }

      .cls-15 {
        clip-path: url(#clippath-5);
      }

      .cls-16 {
        clip-path: url(#clippath-8);
      }

      .cls-17 {
        fill: url(#linear-gradient-8);
      }

      .cls-18 {
        clip-path: url(#clippath-3);
      }

      .cls-19 {
        fill: url(#linear-gradient-7);
      }

      .cls-20 {
        fill: url(#linear-gradient-9);
      }

      .cls-21 {
        fill: url(#linear-gradient-6);
      }

      .cls-22 {
        clip-path: url(#clippath-2);
      }

      .cls-23 {
        fill: url(#linear-gradient);
      }

      .cls-24 {
        clip-path: url(#clippath);
      }
    </style>
    <clipPath id="clippath">
      <path class="cls-9" d="M15.06.38h9.3c.58,0,1.05.47,1.05,1.05v16.07c0,.58-.47,1.06-1.06,1.06h-9.3c-.58,0-1.06-.47-1.06-1.06V1.44c0-.58.47-1.06,1.06-1.06Z"/>
    </clipPath>
    <linearGradient id="linear-gradient" x1="-745.73" y1="822.96" x2="-744.73" y2="822.96" gradientTransform="translate(-8486.46 9402.8) rotate(-180) scale(11.41)" gradientUnits="userSpaceOnUse">
      <stop offset="0" stop-color="#00adee"/>
      <stop offset="1" stop-color="#004c6c"/>
    </linearGradient>
    <clipPath id="clippath-1">
      <path class="cls-9" d="M25.42,17.42V1.43c0-.58-.47-1.05-1.05-1.05h-9.3c-.58,0-1.06.47-1.06,1.05l11.41,15.99Z"/>
    </clipPath>
    <linearGradient id="linear-gradient-2" x1="-745.73" y1="822.96" x2="-744.73" y2="822.96" gradientTransform="translate(14043.75 -12690.62) rotate(-90) scale(17.04 -17.04)" gradientUnits="userSpaceOnUse">
      <stop offset="0" stop-color="#96999b"/>
      <stop offset="1" stop-color="#000"/>
    </linearGradient>
    <clipPath id="clippath-2">
      <rect class="cls-9" x=".48" y=".38" width="11.42" height="18.18" rx="1.06" ry="1.06"/>
    </clipPath>
    <linearGradient id="linear-gradient-3" x1="-745.73" y1="822.96" x2="-744.73" y2="822.96" gradientTransform="translate(-8501.4 9404.36) rotate(-180) scale(11.42)" gradientUnits="userSpaceOnUse">
      <stop offset="0" stop-color="#00adee"/>
      <stop offset="1" stop-color="#004c6c"/>
    </linearGradient>
    <clipPath id="clippath-3">
      <path class="cls-9" d="M11.9,17.42V1.43c0-.58-.47-1.05-1.05-1.05H1.54C.95.38.48.85.48,1.43l11.42,15.99Z"/>
    </clipPath>
    <linearGradient id="linear-gradient-4" x1="-745.73" y1="822.96" x2="-744.73" y2="822.96" gradientTransform="translate(14030.23 -12690.62) rotate(-90) scale(17.04 -17.04)" gradientUnits="userSpaceOnUse">
      <stop offset="0" stop-color="#96999b"/>
      <stop offset="1" stop-color="#000"/>
    </linearGradient>
    <clipPath id="clippath-4">
      <path class="cls-9" d="M27.53,1.43c0-.58.48-1.06,1.06-1.06h9.3c.58,0,1.05.48,1.05,1.06v16.06c0,.58-.47,1.06-1.05,1.06h-9.3c-.58,0-1.06-.47-1.06-1.06V1.43Z"/>
    </clipPath>
    <linearGradient id="linear-gradient-5" x1="-745.73" y1="822.96" x2="-744.73" y2="822.96" gradientTransform="translate(-8472.86 9402.71) rotate(-180) scale(11.41)" gradientUnits="userSpaceOnUse">
      <stop offset="0" stop-color="#00adee"/>
      <stop offset="1" stop-color="#004c6c"/>
    </linearGradient>
    <clipPath id="clippath-5">
      <path class="cls-9" d="M38.94,17.42V1.43c0-.58-.47-1.05-1.05-1.05h-9.3c-.58,0-1.06.47-1.06,1.05l11.41,15.99Z"/>
    </clipPath>
    <linearGradient id="linear-gradient-6" x1="-745.73" y1="822.96" x2="-744.73" y2="822.96" gradientTransform="translate(14057.27 -12690.63) rotate(-90) scale(17.04 -17.04)" gradientUnits="userSpaceOnUse">
      <stop offset="0" stop-color="#96999b"/>
      <stop offset="1" stop-color="#000"/>
    </linearGradient>
    <clipPath id="clippath-6">
      <polygon class="cls-9" points="33.71 3.8 28.97 9.47 33.71 15.13 37.04 15.13 32.3 9.47 37.04 3.8 33.71 3.8"/>
    </clipPath>
    <linearGradient id="linear-gradient-7" x1="-745.73" y1="822.96" x2="-744.73" y2="822.96" gradientTransform="translate(6048.75 -6633.7) scale(8.07)" gradientUnits="userSpaceOnUse">
      <stop offset="0" stop-color="#00adee"/>
      <stop offset="1" stop-color="#004c6c"/>
    </linearGradient>
    <clipPath id="clippath-7">
      <polygon class="cls-9" points="35.36 6.63 32.99 9.47 35.36 12.3 37.02 12.3 34.65 9.47 37.02 6.63 35.36 6.63"/>
    </clipPath>
    <linearGradient id="linear-gradient-8" x1="-745.73" y1="822.96" x2="-744.73" y2="822.96" gradientTransform="translate(3043.59 -3312.9) scale(4.04)" gradientUnits="userSpaceOnUse">
      <stop offset="0" stop-color="#00adee"/>
      <stop offset="1" stop-color="#004c6c"/>
    </linearGradient>
    <clipPath id="clippath-8">
      <path class="cls-9" d="M42.1.37h9.3c.58,0,1.06.47,1.06,1.06v16.07c0,.58-.47,1.06-1.06,1.06h-9.3c-.58,0-1.06-.47-1.06-1.06V1.43c0-.58.47-1.06,1.06-1.06Z"/>
    </clipPath>
    <linearGradient id="linear-gradient-9" x1="-745.73" y1="822.96" x2="-744.73" y2="822.96" gradientTransform="translate(-8462.24 9405.92) rotate(-180) scale(11.42)" gradientUnits="userSpaceOnUse">
      <stop offset="0" stop-color="#00adee"/>
      <stop offset="1" stop-color="#004c6c"/>
    </linearGradient>
    <clipPath id="clippath-9">
      <path class="cls-9" d="M42.1.37c-.58,0-1.06.47-1.06,1.05l11.42,15.99V1.43c0-.58-.47-1.05-1.05-1.05h-9.31Z"/>
    </clipPath>
    <linearGradient id="linear-gradient-10" x1="-745.73" y1="822.96" x2="-744.73" y2="822.96" gradientTransform="translate(14070.79 -12690.63) rotate(-90) scale(17.04 -17.04)" gradientUnits="userSpaceOnUse">
      <stop offset="0" stop-color="#96999b"/>
      <stop offset="1" stop-color="#000"/>
    </linearGradient>
  </defs>
  <g class="cls-24">
    <rect class="cls-23" x="14" y=".38" width="11.41" height="18.18"/>
  </g>
  <g class="cls-13">
    <rect class="cls-4" x="14" y=".38" width="11.41" height="17.04"/>
  </g>
  <path class="cls-10" d="M25.31,17.5c0,.58-.47,1.06-1.06,1.06h-9.3c-.58,0-1.06-.48-1.06-1.06V1.43c0-.58.47-1.05,1.06-1.05h9.3c.58,0,1.06.47,1.06,1.05v16.06Z"/>
  <g class="cls-22">
    <rect class="cls-12" x=".48" y=".38" width="11.42" height="18.18"/>
  </g>
  <g class="cls-18">
    <rect class="cls-11" x=".48" y=".38" width="11.42" height="17.04"/>
  </g>
  <path class="cls-10" d="M11.79,17.5c0,.58-.47,1.06-1.06,1.06H1.43c-.58,0-1.06-.48-1.06-1.06V1.43C.38.85.85.38,1.43.38h9.3c.58,0,1.06.47,1.06,1.05v16.06Z"/>
  <g class="cls-3">
    <rect class="cls-14" x="27.53" y=".37" width="11.41" height="18.18"/>
  </g>
  <g class="cls-15">
    <rect class="cls-21" x="27.53" y=".37" width="11.41" height="17.04"/>
  </g>
  <path class="cls-10" d="M28.48.38h9.3c.58,0,1.06.47,1.06,1.06v16.07c0,.58-.47,1.06-1.06,1.06h-9.3c-.58,0-1.05-.47-1.05-1.05V1.43c0-.58.47-1.06,1.06-1.06Z"/>
  <polygon class="cls-7" points="33.8 6.35 31.42 9.47 33.8 12.58 44.3 12.58 44.3 6.35 33.8 6.35"/>
  <g class="cls-1">
    <rect class="cls-19" x="28.97" y="3.8" width="8.07" height="11.34"/>
  </g>
  <polygon class="cls-10" points="33.71 3.8 28.97 9.47 33.71 15.13 37.04 15.13 32.3 9.47 37.04 3.8 33.71 3.8"/>
  <g class="cls-2">
    <rect class="cls-17" x="32.99" y="6.63" width="4.04" height="5.67"/>
  </g>
  <polygon class="cls-8" points="35.36 6.63 32.99 9.47 35.36 12.3 37.02 12.3 34.65 9.47 37.02 6.63 35.36 6.63"/>
  <g class="cls-16">
    <rect class="cls-20" x="41.05" y=".37" width="11.42" height="18.18"/>
  </g>
  <g class="cls-6">
    <rect class="cls-5" x="41.05" y=".37" width="11.42" height="17.04"/>
  </g>
  <g>
    <polygon class="cls-7" points="47.87 8.35 47.86 5.59 45.64 5.6 45.64 8.35 42.89 8.36 42.9 10.58 45.65 10.58 45.65 13.34 47.88 13.33 47.87 10.57 50.62 10.57 50.62 8.35 47.87 8.35"/>
    <path class="cls-10" d="M42,.38h9.3c.58,0,1.06.47,1.06,1.06v16.07c0,.58-.47,1.06-1.06,1.06h-9.3c-.58,0-1.05-.47-1.05-1.05V1.43c0-.58.47-1.06,1.06-1.06Z"/>
  </g>
</svg>